<?xml version="1.0" encoding="UTF-8"?> <svg xmlns="http://www.w3.org/2000/svg" width="186" height="73" viewBox="0 0 186 73" fill="none"> <path d="M18.0793 26.6618H26.1338L44.2264 71.1136H35.2134L30.7401 59.4979H13.4863L9.01302 71.1136H0L18.0793 26.6618ZM16.3619 51.9967H27.8645L23.7773 41.3335C23.7773 41.3335 22.9519 39.1771 22.1132 36.5047C21.2878 39.1771 20.449 41.3335 20.449 41.3335L16.3619 51.9967Z" fill="white"></path> <path d="M48.5664 26.6618H56.6209V71.1136H48.5664V26.6618Z" fill="white"></path> <path d="M64.6755 26.6618H72.73V43.49C75.0998 40.5001 78.934 38.7273 83.1409 38.7273C91.6347 38.7273 98.2913 44.8923 98.2913 55.3703C98.2913 65.8482 91.3285 72.0132 83.0211 72.0132C78.042 72.0132 74.6471 69.8568 72.73 67.2505V71.1268H64.6755V26.6618ZM90.1037 55.3703C90.1037 50.0387 86.3361 46.2285 81.1573 46.2285C75.9784 46.2285 72.2108 50.0387 72.2108 55.3703C72.2108 60.7018 75.9784 64.512 81.1573 64.512C86.3361 64.512 90.1037 60.7018 90.1037 55.3703Z" fill="white"></path> <path d="M110.486 57.2753C110.992 62.1042 114.453 65.147 119.18 65.147C123.586 65.147 126.142 62.9244 127.94 59.3656L133.944 62.7921C130.935 68.9571 126.209 72 119.06 72C110.246 72 102.764 65.3322 102.764 55.357C102.764 45.3818 110.246 38.7141 119.446 38.7141C128.525 38.7141 134.916 45.2495 134.916 54.4574V57.2489H110.486V57.2753ZM110.486 51.4278H127.487C126.715 47.3663 123.719 44.8262 119.18 44.8262C114.893 44.8262 111.644 47.7499 110.486 51.4278Z" fill="white"></path> <path d="M159.625 46.6651C158.92 46.4138 158.028 46.2153 157.002 46.2153C152.21 46.2153 149.334 50.2107 149.334 55.5555V71.1136H141.28V39.6137H149.334V44.6277C151.118 41.0028 154.06 38.7273 158.147 38.7273C159.172 38.7273 160.064 38.8596 160.89 39.111L159.625 46.6651Z" fill="white"></path> <path d="M164.551 39.6137H169.477V31.107H177.531V39.6137H184.428V46.0962H177.531V60.4505C177.531 63.6917 179.129 64.8956 181.552 64.8956C182.763 64.8956 183.602 64.7104 184.241 64.512L185.013 71.1136C183.602 71.6163 181.499 72 179.648 72C174.15 72 169.49 69.7113 169.49 61.9719V46.0962H164.564V39.6137H164.551Z" fill="white"></path> <path d="M91.7193 13.12C91.2867 12.9813 90.882 12.9258 90.4075 12.9258C87.9932 12.9258 86.2487 15.0892 86.2487 18.0154V26.6969H82.8435V10.1938H86.2627V12.9951C87.1698 11.0675 88.7747 9.73611 91.0495 9.73611C91.4821 9.73611 91.8589 9.80546 92.2915 9.90253L91.7193 13.12Z" fill="white" stroke="white" stroke-width="0.4"></path> <path d="M143.3 27.1685C138.945 27.1685 134.424 24.173 134.424 18.4454C134.424 12.7178 138.945 9.72229 143.3 9.72229C147.654 9.72229 152.176 12.7178 152.176 18.4454C152.176 24.173 147.654 27.1685 143.3 27.1685ZM148.687 18.4454C148.687 15.0893 146.202 12.8565 143.3 12.8565C140.383 12.8565 137.913 15.0893 137.913 18.4454C137.913 21.8015 140.397 24.0343 143.3 24.0343C146.216 24.0343 148.687 21.8015 148.687 18.4454Z" fill="white" stroke="white" stroke-width="0.4"></path> <path d="M153.781 10.1938H156.46V5.72824H159.879V10.1938H163.591V12.9258H159.879V21.6767C159.879 23.3131 160.549 24.1036 162.154 24.1036C162.517 24.1036 163.061 24.0065 163.396 23.9095L163.703 26.7663C163.061 27.0021 162.196 27.1685 161.219 27.1685C158.707 27.1685 156.46 26.0313 156.46 22.273V12.912H153.781V10.1938V10.1938Z" fill="white" stroke="white" stroke-width="0.4"></path> <path d="M109.728 24.5081C108.941 25.2155 108.085 25.8772 107.163 26.4096C106.638 26.7139 106.085 26.9421 105.52 27.1665C105.114 27.3262 104.701 27.4555 104.271 27.5392C103.675 27.657 103.058 27.7369 102.45 27.7369C101.885 27.7369 101.324 27.6647 100.767 27.5848C99.8405 27.4593 98.9934 27.155 98.1422 26.7899C96.5036 26.0826 95.1473 24.858 94.1411 23.4508C93.103 22.0019 92.5701 20.2296 92.5024 18.484C92.3712 14.989 94.4354 11.5434 97.6491 9.87764C98.4366 9.47071 99.2996 9.13224 100.179 8.94969C101.085 8.75954 102.056 8.64164 102.983 8.7215C103.524 8.77094 104.072 8.8356 104.597 8.9687C105.126 9.10181 105.631 9.31098 106.133 9.52015C106.801 9.79778 107.421 10.1629 108.002 10.5812C108.77 11.1327 109.493 11.7145 110.166 12.3687C110.714 12.9011 111.232 13.4678 111.729 14.042C112.763 15.24 113.753 16.4836 114.732 17.7234C114.946 17.9972 115.161 18.2672 115.38 18.5373C115.257 18.3851 115.129 18.2292 115.006 18.0771C116.211 19.5603 117.484 21.0207 119.043 22.173C118.884 22.0551 118.721 21.9334 118.562 21.8155C119.194 22.2795 119.87 22.6826 120.602 22.9831C120.411 22.907 120.22 22.8309 120.033 22.7549C120.566 22.9717 121.123 23.1238 121.7 23.2036C121.489 23.177 121.278 23.1504 121.063 23.1238C121.66 23.1998 122.261 23.1884 122.853 23.1124C122.642 23.139 122.432 23.1656 122.217 23.1922C122.893 23.1048 123.549 22.9336 124.182 22.6788C123.991 22.7549 123.8 22.8309 123.613 22.907C124.209 22.6636 124.77 22.3479 125.283 21.9714C125.124 22.0893 124.961 22.211 124.802 22.3289C125.311 21.9486 125.765 21.5151 126.162 21.0283C126.039 21.1804 125.912 21.3363 125.788 21.4885C126.182 20.9979 126.512 20.4616 126.767 19.8912C126.687 20.0737 126.608 20.2563 126.528 20.435C126.795 19.8341 126.974 19.2028 127.065 18.5563C127.037 18.7578 127.009 18.9594 126.982 19.1648C127.065 18.5335 127.065 17.8945 126.982 17.2594C127.009 17.461 127.037 17.6626 127.065 17.8679C126.974 17.2214 126.795 16.5939 126.528 15.9892C126.608 16.1717 126.687 16.3543 126.767 16.533C126.512 15.9626 126.182 15.4263 125.788 14.9357C125.912 15.0879 126.039 15.2438 126.162 15.3959C125.765 14.9091 125.311 14.4756 124.802 14.0953C124.961 14.2132 125.124 14.3349 125.283 14.4527C124.77 14.0762 124.209 13.7606 123.613 13.5172C123.804 13.5933 123.995 13.6693 124.182 13.7454C123.553 13.4906 122.893 13.3194 122.217 13.232C122.428 13.2586 122.638 13.2852 122.853 13.3118C122.272 13.2396 121.684 13.2282 121.103 13.2966C121.314 13.27 121.525 13.2434 121.74 13.2167C121.163 13.2928 120.602 13.4449 120.065 13.6617C120.256 13.5856 120.447 13.5096 120.634 13.4335C119.906 13.734 119.234 14.1371 118.605 14.5973C118.764 14.4794 118.928 14.3577 119.087 14.2398C118.737 14.5022 118.399 14.7798 118.072 15.0688C117.615 15.4758 117.018 15.7382 116.386 15.7382C115.801 15.7382 115.101 15.491 114.7 15.0688C114.282 14.6353 113.972 14.0648 114 13.4563C114.028 12.8631 114.23 12.2584 114.7 11.8438C115.455 11.1707 116.275 10.5356 117.158 10.0222C117.591 9.77116 118.045 9.56579 118.51 9.37944C118.971 9.19309 119.429 9.02195 119.918 8.91546C120.865 8.7101 121.839 8.63784 122.801 8.74813C123.692 8.85081 124.547 8.99533 125.379 9.31859C126.19 9.63424 126.954 9.98033 127.65 10.4861C128.35 10.9919 128.994 11.513 129.535 12.1747C129.853 12.5664 130.171 12.9543 130.438 13.3803C130.716 13.8252 130.919 14.3006 131.13 14.7798C131.436 15.4872 131.603 16.206 131.707 16.959C131.766 17.3963 131.818 17.8261 131.814 18.2672C131.81 18.7921 131.734 19.3055 131.655 19.8227C131.528 20.6746 131.225 21.4542 130.867 22.2377C130.513 23.0097 130.016 23.6714 129.471 24.3294C128.926 24.9835 128.266 25.5045 127.566 25.9989C126.866 26.4971 126.087 26.8356 125.279 27.1436C124.448 27.4593 123.577 27.5962 122.69 27.6875C120.912 27.8738 119.134 27.4289 117.567 26.634C116.784 26.2347 116.072 25.7137 115.384 25.1774C114.819 24.7363 114.29 24.2495 113.789 23.7437C112.663 22.6028 111.669 21.3515 110.679 20.1003C110.484 19.8531 110.289 19.6097 110.094 19.3625C110.217 19.5147 110.345 19.6706 110.468 19.8227C109.211 18.2939 108.006 16.7232 106.55 15.3579C106.137 14.97 105.703 14.5973 105.242 14.255C105.401 14.3729 105.564 14.4946 105.723 14.6125C105.083 14.1409 104.395 13.7264 103.647 13.4259C103.838 13.502 104.029 13.578 104.216 13.6541C103.699 13.4487 103.162 13.3004 102.605 13.2244C102.816 13.251 103.026 13.2776 103.241 13.3042C102.645 13.2282 102.044 13.2434 101.451 13.3156C101.662 13.289 101.873 13.2624 102.088 13.2358C101.412 13.3232 100.755 13.4944 100.123 13.7492C100.314 13.6731 100.505 13.5971 100.692 13.521C100.095 13.7644 99.5343 14.08 99.0212 14.4566C99.1803 14.3387 99.3434 14.217 99.5025 14.0991C98.9934 14.4794 98.54 14.9129 98.1422 15.3997C98.2655 15.2476 98.3928 15.0917 98.5161 14.9395C98.1224 15.4301 97.7922 15.9664 97.5377 16.5368C97.6172 16.3543 97.6968 16.1717 97.7763 15.993C97.5099 16.5939 97.3309 17.2252 97.2394 17.8717C97.2672 17.6702 97.2951 17.4686 97.3229 17.2632C97.2394 17.8945 97.2394 18.5335 97.3229 19.1686C97.2951 18.967 97.2672 18.7654 97.2394 18.5601C97.3309 19.2066 97.5099 19.8341 97.7763 20.4388C97.6968 20.2563 97.6172 20.0737 97.5377 19.895C97.7922 20.4654 98.1224 21.0017 98.5161 21.4923C98.3928 21.3401 98.2655 21.1842 98.1422 21.0321C98.54 21.5189 98.9934 21.9524 99.5025 22.3327C99.3434 22.2148 99.1803 22.0931 99.0212 21.9752C99.5343 22.3518 100.095 22.6674 100.692 22.9108C100.501 22.8347 100.31 22.7587 100.123 22.6826C100.751 22.9374 101.412 23.1086 102.088 23.196C101.877 23.1694 101.666 23.1428 101.451 23.1162C102.032 23.1884 102.621 23.1998 103.201 23.1314C102.991 23.158 102.78 23.1846 102.565 23.2112C103.146 23.1352 103.702 22.9831 104.243 22.7701C104.052 22.8462 103.862 22.9222 103.675 22.9983C104.426 22.694 105.118 22.2757 105.767 21.8003C105.608 21.9182 105.445 22.0399 105.285 22.1578C105.655 21.884 106.009 21.5911 106.351 21.2831C106.805 20.8762 107.405 20.6137 108.038 20.6137C108.622 20.6137 109.322 20.8609 109.724 21.2831C110.146 21.7166 110.456 22.2871 110.428 22.8956C110.4 23.4889 110.193 24.0898 109.728 24.5081Z" fill="#63E3C9"></path> <rect x="113.958" y="0.646332" width="4.8854" height="15.0773" rx="2.4427" fill="#63E3C9"></rect> <rect x="113.958" y="21.5617" width="4.8854" height="6.17518" rx="2.4427" fill="#63E3C9"></rect> </svg> 