<?xml version="1.0" encoding="UTF-8"?>
<svg width="44px" height="26px" viewBox="0 0 44 26" version="1.1" xmlns="http://www.w3.org/2000/svg" xmlns:xlink="http://www.w3.org/1999/xlink">
    <title>Path</title>
    <g id="Page-1" stroke="none" stroke-width="1" fill="none" fill-rule="evenodd">
        <g id="SKILLAZ_LANDING_13July-Copy" transform="translate(-1203.000000, -1374.000000)" fill="#FFFFFF" fill-rule="nonzero">
            <g id="down-arrow" transform="translate(879.000000, 1240.000000)">
                <path d="M367.29671,136.173049 L365.85543,134.721129 C365.401833,134.267694 364.798348,134.017894 364.153367,134.017894 C363.508744,134.017894 362.904544,134.267694 362.450947,134.721129 L346.009837,151.170021 L329.549769,134.702877 C329.096887,134.249443 328.492687,134 327.848064,134 C327.203441,134 326.598883,134.249443 326.145643,134.702877 L324.704006,136.14585 C323.765331,137.084212 323.765331,138.612719 324.704006,139.551081 L344.301694,159.227694 C344.754575,159.680771 345.35806,160 346.008407,160 L346.015919,160 C346.6609,160 347.264384,159.680413 347.717266,159.227694 L367.29671,139.604405 C367.750307,139.151328 367.999285,138.529332 368,137.884432 C368,137.239174 367.750307,136.625767 367.29671,136.173049 Z" id="Path"></path>
            </g>
        </g>
    </g>
</svg>