<svg width="250" height="250" xmlns="http://www.w3.org/2000/svg"><g fill-rule="nonzero" fill="none"><path d="M245.117 120.117h-11.831c-.856-19.201-6.748-37.733-17.179-53.874a4.883 4.883 0 00-8.202 5.3c9.407 14.558 14.757 31.259 15.605 48.574h-18.585c-2.435-40.274-34.769-72.607-75.042-75.042V26.49c17.314.848 34.015 6.198 48.574 15.605a4.883 4.883 0 105.3-8.202c-16.141-10.43-34.674-16.323-53.874-17.179V4.883a4.883 4.883 0 00-9.766 0v11.83c-27.12 1.195-52.448 12.32-71.766 31.638-19.32 19.318-30.443 44.646-31.637 71.766H4.883a4.883 4.883 0 000 9.766h11.83c1.195 27.12 12.319 52.448 31.638 71.766 19.318 19.32 44.646 30.443 71.766 31.637v11.831a4.883 4.883 0 009.766 0v-11.83c27.12-1.195 52.448-12.32 71.766-31.638 19.32-19.318 30.443-44.646 31.637-71.766h11.831a4.883 4.883 0 000-9.766zM125 166.992c-9.575 0-18.407-3.228-25.479-8.644.952-7.505 7.373-13.328 15.132-13.328h20.693c7.76 0 14.18 5.823 15.133 13.328-7.072 5.416-15.904 8.644-25.479 8.644zm10.361-42.1c0 5.713-4.648 10.362-10.361 10.362-5.713 0-10.361-4.649-10.361-10.361v-2.626c0-5.713 4.648-10.362 10.361-10.362 5.713 0 10.361 4.649 10.361 10.362v2.626zm23.001 25.569c-3.008-7.024-9.14-12.403-16.64-14.38a20.012 20.012 0 003.405-11.188v-2.626c0-11.098-9.029-20.127-20.127-20.127-11.098 0-20.127 9.029-20.127 20.127v2.626c0 4.137 1.256 7.985 3.405 11.187-7.5 1.978-13.632 7.357-16.64 14.38-5.408-7.068-8.63-15.893-8.63-25.46 0-23.155 18.837-41.992 41.992-41.992 23.155 0 41.992 18.837 41.992 41.992 0 9.567-3.222 18.392-8.63 25.46zm-38.245-76.987c-24.65 2.318-44.325 21.993-46.643 46.643H54.86c2.405-34.887 30.37-62.852 65.257-65.257v18.614zm-46.643 56.409c2.318 24.65 21.993 44.325 46.643 46.643v18.614c-34.887-2.405-62.852-30.37-65.257-65.257h18.614zm56.409 46.643c24.65-2.318 44.325-21.993 46.643-46.643h18.614c-2.405 34.887-30.37 62.852-65.257 65.257v-18.614zm65.257-56.409h-18.614c-2.318-24.65-21.993-44.325-46.643-46.643V54.86c34.887 2.405 62.852 30.37 65.257 65.257zM120.117 26.49v18.586C79.844 47.51 47.51 79.843 45.075 120.117H26.49c2.474-50.509 43.12-91.154 93.628-93.628zM26.49 129.883h18.586c2.435 40.274 34.769 72.607 75.042 75.042v18.586c-50.509-2.474-91.154-43.12-93.628-93.628zm103.394 93.628v-18.586c40.273-2.435 72.607-34.768 75.042-75.042h18.586c-2.474 50.509-43.12 91.154-93.628 93.628z" fill="#FFF"/><path d="M198 57a5.036 5.036 0 003.535-1.465A5.038 5.038 0 00203 52c0-1.32-.535-2.605-1.465-3.535A5.017 5.017 0 00198 47c-1.315 0-2.605.53-3.535 1.465A5.03 5.03 0 00193 52c0 1.315.535 2.605 1.465 3.535.93.93 2.22 1.465 3.535 1.465z" fill="#FF0069"/></g></svg>