<svg xmlns="http://www.w3.org/2000/svg" width="242" height="84" viewBox="0 0 242 84">
    <g fill="none" fill-rule="evenodd">
        <path d="M0 0h242v84H0z"/>
        <g transform="translate(24 12)">
            <path fill="#1D2C7F" d="M185 30c0 7.482 1.752 11.235 4.822 12.11a3 3 0 0 1-1.644 5.77c-3.334-.95-5.72-3.164-7.22-6.512C177.655 45.415 172.63 48 167 48c-9.941 0-18-8.059-18-18s8.059-18 18-18 18 8.059 18 18zm-18 12c6.627 0 12-5.373 12-12s-5.373-12-12-12-12 5.373-12 12 5.373 12 12 12zm-48-26.125c1.284-1.792 5.67-3.875 9.5-3.875 8.575 0 15.5 6.369 15.5 13.75V45a3 3 0 0 1-6 0V25.75c0-3.95-4.132-7.75-9.5-7.75s-9.5 3.8-9.5 7.75V45a3 3 0 0 1-6 0V3a3 3 0 0 1 6 0v12.875zm-35.686 22.58C84.862 40.33 89.377 42 93.5 42c5.416 0 8.5-2.04 8.5-4.75 0-1.51-.622-2.623-1.897-3.5-1.275-.877-3.455-1.405-6.603-1.77-3.61-.418-6.23-1.085-8.475-2.277C81.859 28.023 80 25.331 80 21.75c0-3.47 1.76-6.193 4.792-7.837C87.204 12.606 89.857 12 93.5 12c3.913 0 8.344 1.456 10.936 3.732 1.245 1.093 1.867 2.989.774 4.234a3 3 0 0 1-4.234.274C99.556 18.992 96.536 18 93.5 18c-2.728 0-4.441.425-5.848 1.188C86.486 19.82 86 20.548 86 21.75c0 1.451.52 2.204 1.837 2.903 1.437.763 2.735 1.254 5.663 1.617 3.556.44 6.525 1.105 8.938 2.342C105.933 30.404 108 33.312 108 37c0 6.731-6.68 11-15 11-5.823 0-11.556-2.384-14.314-5.727a3 3 0 1 1 4.628-3.818zM73 30v15a3 3 0 0 1-6 0v-2.583C64.815 45.267 60.61 48 55 48c-9.941 0-18-8.059-18-18s8.059-18 18-18 18 8.059 18 18zM55 42c6.627 0 12-5.373 12-12s-5.373-12-12-12-12 5.373-12 12 5.373 12 12 12zM8 18a2 2 0 0 0-2 2v20a2 2 0 0 0 2 2l7.256-.002C21.761 41.894 27 36.56 27 30s-5.24-11.894-11.744-12H8.001zm25 12c0 9.861-7.903 17.87-17.7 17.998L8 48a8 8 0 0 1-8-8V20a8 8 0 0 1 8-8h7.3c9.797.13 17.7 8.139 17.7 18z"/>
            <ellipse cx="188" cy="6" fill="#02CCCB" rx="6" ry="6"/>
        </g>
    </g>
</svg>
