<svg clip-rule="evenodd" fill-rule="evenodd" image-rendering="optimizeQuality" shape-rendering="geometricPrecision" text-rendering="geometricPrecision" version="1.1" viewBox="0 0 2301.8342 661.49626" xml:space="preserve" xmlns="http://www.w3.org/2000/svg"><defs><style type="text/css"><![CDATA[
    .fil0 {fill:#002D70}
    .fil1 {fill:#99A8D6}
   ]]></style></defs><g transform="matrix(.13602 0 0 .12563 0 -42.17)"><path class="fil0" d="m6463.3 2953.4 531-626c32-36 47-82 47-127 0-102-92-181-191-181-58 0-115 28-158 80l-521 621v-516c0-106-91-187-195-187s-195 81-195 187v1662c0 106 91 187 195 187 103 0 195-80 195-187v-569l42-50 515 723c53 76 160 104 244 66 99-45 139-185 76-276-195-269-390-539-585-808zm2450 990c-16 48-33 89-50 125-41 86-81 149-185 149-97 5-184 77-184 179 0 108 90 179 195 179 442 0 550-415 662-763l327-1008c39-95-22-192-113-225-96-35-219 10-249 112l-214 739-247-740c-36-103-149-146-248-111-90 31-137 119-115 212l422 1153zm-1690-874v475c0 328 258 506 562 506 148 0 335-26 455-115 46-34 72-84 72-138 0-98-89-170-183-170-90 0-173 83-315 83-177 0-219-79-206-221 63 8 129 11 192 11 312 0 537-123 536-456-1-322-217-486-533-486-318 0-579 180-579 512zm573-179c106 0 158 40 158 146-1 139-75 146-195 143-51-3-101-6-152-11v-116c0-117 82-163 189-163z" fill="#002d70"/><path class="fil1" d="m9869.3 2205.4v1662c0 106 91 189 195 189 104 0 195-83 195-189v-646h559v646c0 104 92 189 195 189 104 0 195-83 195-189v-1662c0-104-93-187-195-187s-195 82-195 187v646h-559v-646c0-106-91-187-195-187-104 0-195 81-195 187zm4615 221c106 0 191-81 191-180s-86-180-191-180c-106 0-191 81-191 180s86 180 191 180zm1864 1284c-121 0-221-66-317-66-90 0-155 74-155 170 0 211 340 234 483 234 287 0 536-125 536-452 0-321-231-380-492-488-58-24-133-55-133-127 0-64 54-82 119-82 117 0 204 60 296 61 85 0 162-57 162-158 0-204-281-243-434-243-283 0-522 131-522 450 0 276 182 366 423 450 62 22 203 60 203 144s-100 109-168 109zm-1368-278c0 395 128 611 542 610 128 0 253-38 253-189 0-57-20-108-72-136-101-55-161-16-250-32-88-16-85-121-88-192l-1-503h192c98 0 184-75 184-176 0-102-83-179-184-179h-192v-286c0-111-87-181-192-181-107 0-192 68-192 181v1082zm-688-685v1120c0 108 88 183 193 183s191-75 191-183v-1120c0-105-91-181-192-181-103 0-192 74-192 181zm-882 1304c343 0 579-201 579-536v-478c0-314-193-479-495-479-100 0-187 15-278 58v-444c0-108-85-179-192-179-104 0-192 67-192 179v1394c0 334 288 485 579 485zm-195-485v-606c60-56 133-77 214-77 103 0 176 28 176 146v500c0 131-66 187-195 187-99 0-195-35-195-149zm-1320 484c129 0 251-36 356-111 58 68 135 101 224 101 137 0 205-53 205-160 0-77-44-128-118-143-31-6-29-16-29-40v-545c0-153-28-319-129-438-105-124-273-156-428-156s-463 35-463 246c0 99 61 165 157 165 100 0 165-70 279-70 187 0 200 95 200 248-64-13-130-20-195-20-305 0-549 113-549 452 0 303 190 471 490 471zm-109-468c0-195 230-145 363-120v181c-105 79-363 137-363-61z" fill="#99a8d6"/><polygon class="fil0" points="1951 5563 5252 344 1730 3212 0 2695" fill="#002d70"/><circle class="fil0" cx="1833" cy="1889" r="642" fill="#002d70"/><path class="fil1" d="m1194 4254-277-434c-476 132-758 464-800 962 240-378 651-509 1077-527z" fill="#99a8d6"/><path class="fil1" d="m1099 3781 302 472c1211 40 2796 786 3850 1329-988-846-2780-2017-4152-1802z" fill="#99a8d6"/></g></svg>
