<svg viewBox="0 0 927 279" fill="none" xmlns="http://www.w3.org/2000/svg">
<path d="M131.723 136.934C130.34 136.942 128.984 136.54 127.828 135.777C126.671 135.014 125.765 133.925 125.223 132.646C124.681 131.367 124.528 129.956 124.783 128.59C125.038 127.224 125.689 125.964 126.655 124.969C127.621 123.973 128.858 123.287 130.211 122.996C131.564 122.705 132.973 122.823 134.26 123.334C135.547 123.845 136.654 124.727 137.443 125.869C138.232 127.011 138.668 128.361 138.694 129.751C138.712 130.684 138.546 131.611 138.204 132.479C137.862 133.346 137.352 134.137 136.704 134.806C136.055 135.474 135.281 136.006 134.426 136.371C133.571 136.737 132.652 136.928 131.723 136.934V136.934ZM131.723 104.291C119.258 104.291 107.302 109.262 98.483 118.11C89.6641 126.959 84.7037 138.962 84.6917 151.482C84.6725 156.811 85.5762 162.103 87.3624 167.121C87.7706 168.377 88.2544 169.607 88.8109 170.804C89.3541 172.016 89.9426 173.198 90.5763 174.35C93.6781 179.985 97.8953 184.924 102.969 188.861C108.042 192.798 113.864 195.651 120.076 197.244C126.288 198.837 132.759 199.136 139.09 198.123C145.422 197.109 151.48 194.806 156.891 191.353C158.023 190.664 159.112 189.904 160.151 189.08L163.183 186.58C170.912 179.61 176.105 170.251 177.94 159.984C177.94 158.711 178.348 157.392 178.483 156.074C178.619 154.755 178.483 153.437 178.483 152.073V151.482C178.484 139.005 173.564 127.037 164.802 118.193C156.039 109.35 144.146 104.351 131.723 104.291V104.291ZM133.806 179.987H127.876V145.072H133.806V179.987Z" fill="white"/>
<path d="M131.723 69.3755C148.873 69.3755 162.776 55.4123 162.776 38.1877C162.776 20.9632 148.873 7 131.723 7C114.573 7 100.671 20.9632 100.671 38.1877C100.671 55.4123 114.573 69.3755 131.723 69.3755Z" fill="white"/>
<path d="M227.552 188.216C240.502 188.216 251 177.673 251 164.666C251 151.66 240.502 141.116 227.552 141.116C214.602 141.116 204.104 151.66 204.104 164.666C204.104 177.673 214.602 188.216 227.552 188.216Z" fill="white"/>
<path d="M194.689 271.323C212.839 271.323 227.552 256.546 227.552 238.317C227.552 220.088 212.839 205.31 194.689 205.31C176.539 205.31 161.825 220.088 161.825 238.317C161.825 256.546 176.539 271.323 194.689 271.323Z" fill="white"/>
<path d="M64.005 198.718C64.0677 192.352 62.2465 186.11 58.7723 180.785C55.2981 175.459 50.3275 171.29 44.4907 168.805C38.654 166.321 32.2142 165.634 25.9879 166.831C19.7617 168.027 14.0296 171.054 9.51856 175.527C5.00752 180 1.92078 185.718 0.649825 191.956C-0.621133 198.193 -0.0190565 204.669 2.3797 210.563C4.77845 216.456 8.86582 221.501 14.1234 225.058C19.381 228.615 25.572 230.524 31.9112 230.542V230.542C40.36 230.567 48.4757 227.235 54.488 221.273C60.5003 215.311 63.9214 207.203 64.005 198.718V198.718Z" fill="white"/>
<path d="M98.8666 161.156L42.447 190.44L46.0632 197.468L102.483 168.183L98.8666 161.156Z" fill="white"/>
<path d="M150.84 169.859L144.512 174.569L187.714 233.122L194.042 228.412L150.84 169.859Z" fill="white"/>
<path d="M153.034 147.6L151.681 155.393L226.91 168.566L228.263 160.773L153.034 147.6Z" fill="white"/>
<path d="M135.662 52.3268H127.785V120.34H135.662V52.3268Z" fill="white"/>
<path d="M326.085 17.8359L344.447 63.6621L362.808 17.8359H372.413V74H365.007V52.1284L365.701 28.521L347.263 74H341.592L323.192 28.6367L323.925 52.1284V74H316.519V17.8359H326.085ZM382.481 52.7456C382.481 48.6567 383.278 44.9793 384.873 41.7134C386.493 38.4474 388.73 35.9272 391.584 34.1528C394.465 32.3784 397.743 31.4912 401.421 31.4912C407.104 31.4912 411.694 33.4585 415.192 37.3931C418.715 41.3276 420.477 46.5609 420.477 53.0928V53.5942C420.477 57.6574 419.692 61.3091 418.124 64.5493C416.581 67.7638 414.356 70.2712 411.45 72.0713C408.57 73.8714 405.253 74.7715 401.498 74.7715C395.84 74.7715 391.25 72.8042 387.727 68.8696C384.23 64.9351 382.481 59.7275 382.481 53.2471V52.7456ZM389.656 53.5942C389.656 58.2231 390.723 61.9391 392.857 64.7422C395.018 67.5452 397.898 68.9468 401.498 68.9468C405.124 68.9468 408.004 67.5324 410.139 64.7036C412.273 61.8491 413.34 57.8631 413.34 52.7456C413.34 48.1681 412.247 44.465 410.062 41.6362C407.901 38.7817 405.021 37.3545 401.421 37.3545C397.898 37.3545 395.056 38.756 392.896 41.5591C390.736 44.3621 389.656 48.3739 389.656 53.5942ZM446.167 68.9468C448.713 68.9468 450.937 68.1753 452.84 66.6323C454.743 65.0894 455.798 63.1606 456.003 60.8462H462.754C462.625 63.2378 461.802 65.5137 460.285 67.6738C458.768 69.834 456.736 71.557 454.19 72.8428C451.67 74.1286 448.996 74.7715 446.167 74.7715C440.484 74.7715 435.958 72.8813 432.589 69.1011C429.246 65.2951 427.574 60.1004 427.574 53.5171V52.3213C427.574 48.2581 428.32 44.645 429.812 41.4819C431.303 38.3188 433.438 35.863 436.215 34.1143C439.018 32.3656 442.322 31.4912 446.128 31.4912C450.809 31.4912 454.692 32.8927 457.778 35.6958C460.889 38.4989 462.548 42.1377 462.754 46.6123H456.003C455.798 43.9121 454.769 41.7005 452.917 39.9775C451.092 38.2288 448.829 37.3545 446.128 37.3545C442.502 37.3545 439.687 38.666 437.681 41.2891C435.701 43.8864 434.71 47.6538 434.71 52.5913V53.9414C434.71 58.7503 435.701 62.4535 437.681 65.0508C439.661 67.6481 442.49 68.9468 446.167 68.9468ZM483.777 56.2173H478.569V74H471.395V32.2627H478.569V49.9297H483.237L497.278 32.2627H505.918L489.409 52.3213L507.307 74H498.242L483.777 56.2173ZM510.702 52.7456C510.702 48.6567 511.499 44.9793 513.093 41.7134C514.713 38.4474 516.951 35.9272 519.805 34.1528C522.685 32.3784 525.964 31.4912 529.642 31.4912C535.325 31.4912 539.915 33.4585 543.413 37.3931C546.936 41.3276 548.697 46.5609 548.697 53.0928V53.5942C548.697 57.6574 547.913 61.3091 546.344 64.5493C544.801 67.7638 542.577 70.2712 539.671 72.0713C536.791 73.8714 533.473 74.7715 529.719 74.7715C524.061 74.7715 519.471 72.8042 515.948 68.8696C512.45 64.9351 510.702 59.7275 510.702 53.2471V52.7456ZM517.876 53.5942C517.876 58.2231 518.944 61.9391 521.078 64.7422C523.238 67.5452 526.118 68.9468 529.719 68.9468C533.345 68.9468 536.225 67.5324 538.359 64.7036C540.494 61.8491 541.561 57.8631 541.561 52.7456C541.561 48.1681 540.468 44.465 538.282 41.6362C536.122 38.7817 533.242 37.3545 529.642 37.3545C526.118 37.3545 523.277 38.756 521.117 41.5591C518.957 44.3621 517.876 48.3739 517.876 53.5942ZM558.302 74V32.2627H574.581C580.135 32.2627 584.391 33.2399 587.349 35.1943C590.332 37.123 591.823 39.9647 591.823 43.7192C591.823 45.6479 591.245 47.3966 590.087 48.9653C588.93 50.5083 587.22 51.6912 584.957 52.5142C587.477 53.1056 589.496 54.2629 591.013 55.9858C592.556 57.7088 593.328 59.7661 593.328 62.1577C593.328 65.9894 591.913 68.9211 589.084 70.9526C586.281 72.9842 582.308 74 577.165 74H558.302ZM565.438 55.6772V68.2524H577.242C580.225 68.2524 582.45 67.6995 583.916 66.5938C585.407 65.488 586.153 63.9321 586.153 61.9263C586.153 57.7603 583.093 55.6772 576.972 55.6772H565.438ZM565.438 49.9683H574.658C581.344 49.9683 584.687 48.0138 584.687 44.105C584.687 40.1961 581.524 38.1774 575.198 38.0488H565.438V49.9683ZM619.52 68.9468C622.065 68.9468 624.29 68.1753 626.193 66.6323C628.096 65.0894 629.15 63.1606 629.356 60.8462H636.106C635.978 63.2378 635.155 65.5137 633.638 67.6738C632.12 69.834 630.089 71.557 627.543 72.8428C625.023 74.1286 622.348 74.7715 619.52 74.7715C613.836 74.7715 609.31 72.8813 605.941 69.1011C602.598 65.2951 600.927 60.1004 600.927 53.5171V52.3213C600.927 48.2581 601.673 44.645 603.164 41.4819C604.656 38.3188 606.79 35.863 609.567 34.1143C612.37 32.3656 615.675 31.4912 619.481 31.4912C624.161 31.4912 628.044 32.8927 631.13 35.6958C634.242 38.4989 635.901 42.1377 636.106 46.6123H629.356C629.15 43.9121 628.122 41.7005 626.27 39.9775C624.444 38.2288 622.181 37.3545 619.481 37.3545C615.855 37.3545 613.039 38.666 611.033 41.2891C609.053 43.8864 608.063 47.6538 608.063 52.5913V53.9414C608.063 58.7503 609.053 62.4535 611.033 65.0508C613.013 67.6481 615.842 68.9468 619.52 68.9468ZM657.129 56.2173H651.922V74H644.747V32.2627H651.922V49.9297H656.589L670.63 32.2627H679.271L662.761 52.3213L680.66 74H671.595L657.129 56.2173ZM713.795 32.2627H720.931V74H713.795V43.5649L694.546 74H687.41V32.2627H694.546V62.7363L713.795 32.2627ZM759.39 32.2627H766.526V74H759.39V43.5649L740.141 74H733.005V32.2627H740.141V62.7363L759.39 32.2627ZM761.318 17.0645C761.318 20.1761 760.251 22.6834 758.117 24.5864C756.008 26.4637 753.231 27.4023 749.785 27.4023C746.339 27.4023 743.549 26.4508 741.414 24.5479C739.28 22.6449 738.212 20.1504 738.212 17.0645H744.037C744.037 18.8646 744.526 20.279 745.503 21.3076C746.48 22.3105 747.907 22.812 749.785 22.812C751.585 22.812 752.986 22.3105 753.989 21.3076C755.018 20.3047 755.532 18.8903 755.532 17.0645H761.318ZM351.93 110.836H359.336V167H351.93V123.72L324.272 167H316.828V110.836H324.272V154.116L351.93 110.836ZM405.818 167H398.682V149.179H379.511V167H372.336V125.263H379.511V143.354H398.682V125.263H405.818V167ZM451.413 167H444.277V149.179H425.105V167H417.931V125.263H425.105V143.354H444.277V125.263H451.413V167ZM461.018 145.746C461.018 141.657 461.815 137.979 463.41 134.713C465.03 131.447 467.267 128.927 470.122 127.153C473.002 125.378 476.281 124.491 479.958 124.491C485.641 124.491 490.232 126.458 493.729 130.393C497.252 134.328 499.014 139.561 499.014 146.093V146.594C499.014 150.657 498.229 154.309 496.661 157.549C495.118 160.764 492.893 163.271 489.987 165.071C487.107 166.871 483.79 167.771 480.035 167.771C474.378 167.771 469.787 165.804 466.264 161.87C462.767 157.935 461.018 152.728 461.018 146.247V145.746ZM468.193 146.594C468.193 151.223 469.26 154.939 471.395 157.742C473.555 160.545 476.435 161.947 480.035 161.947C483.661 161.947 486.541 160.532 488.676 157.704C490.81 154.849 491.877 150.863 491.877 145.746C491.877 141.168 490.785 137.465 488.599 134.636C486.438 131.782 483.558 130.354 479.958 130.354C476.435 130.354 473.593 131.756 471.433 134.559C469.273 137.362 468.193 141.374 468.193 146.594ZM508.619 167V125.263H524.897C530.452 125.263 534.708 126.24 537.665 128.194C540.648 130.123 542.14 132.965 542.14 136.719C542.14 138.648 541.561 140.397 540.404 141.965C539.247 143.508 537.536 144.691 535.273 145.514C537.794 146.106 539.812 147.263 541.33 148.986C542.873 150.709 543.644 152.766 543.644 155.158C543.644 158.989 542.23 161.921 539.401 163.953C536.598 165.984 532.625 167 527.481 167H508.619ZM515.755 148.677V161.252H527.559C530.542 161.252 532.766 160.7 534.232 159.594C535.723 158.488 536.469 156.932 536.469 154.926C536.469 150.76 533.409 148.677 527.289 148.677H515.755ZM515.755 142.968H524.974C531.66 142.968 535.003 141.014 535.003 137.105C535.003 133.196 531.84 131.177 525.514 131.049H515.755V142.968ZM578.862 167C578.451 166.177 578.117 164.711 577.859 162.603C574.542 166.049 570.582 167.771 565.979 167.771C561.864 167.771 558.482 166.614 555.833 164.3C553.21 161.96 551.899 159.002 551.899 155.428C551.899 151.082 553.545 147.713 556.836 145.321C560.154 142.904 564.808 141.695 570.8 141.695H577.744V138.417C577.744 135.922 576.998 133.942 575.506 132.476C574.015 130.985 571.816 130.239 568.91 130.239C566.364 130.239 564.23 130.882 562.507 132.167C560.784 133.453 559.922 135.009 559.922 136.835H552.748C552.748 134.752 553.48 132.746 554.946 130.817C556.438 128.863 558.444 127.32 560.964 126.188C563.51 125.057 566.3 124.491 569.334 124.491C574.143 124.491 577.911 125.7 580.637 128.117C583.363 130.509 584.777 133.813 584.88 138.031V157.241C584.88 161.072 585.368 164.12 586.346 166.383V167H578.862ZM567.02 161.561C569.257 161.561 571.379 160.982 573.385 159.825C575.391 158.668 576.844 157.164 577.744 155.312V146.749H572.15C563.407 146.749 559.035 149.307 559.035 154.425C559.035 156.662 559.781 158.411 561.272 159.671C562.764 160.931 564.68 161.561 567.02 161.561ZM596.684 125.263H603.858V161.175H623.068V125.263H630.205V161.175H635.181L634.486 179.382H628.083V167H596.684V125.263ZM669.897 125.263H677.034V167H669.897V136.565L650.649 167H643.513V125.263H650.649V155.736L669.897 125.263ZM686.6 145.746C686.6 141.657 687.397 137.979 688.992 134.713C690.612 131.447 692.849 128.927 695.704 127.153C698.584 125.378 701.863 124.491 705.54 124.491C711.223 124.491 715.814 126.458 719.311 130.393C722.834 134.328 724.596 139.561 724.596 146.093V146.594C724.596 150.657 723.811 154.309 722.243 157.549C720.7 160.764 718.475 163.271 715.569 165.071C712.689 166.871 709.372 167.771 705.617 167.771C699.96 167.771 695.369 165.804 691.846 161.87C688.349 157.935 686.6 152.728 686.6 146.247V145.746ZM693.775 146.594C693.775 151.223 694.842 154.939 696.977 157.742C699.137 160.545 702.017 161.947 705.617 161.947C709.243 161.947 712.123 160.532 714.258 157.704C716.392 154.849 717.459 150.863 717.459 145.746C717.459 141.168 716.367 137.465 714.181 134.636C712.021 131.782 709.14 130.354 705.54 130.354C702.017 130.354 699.175 131.756 697.015 134.559C694.855 137.362 693.775 141.374 693.775 146.594ZM767.645 167H760.508V149.179H741.337V167H734.162V125.263H741.337V143.354H760.508V125.263H767.645V167ZM813.239 167H806.103V149.179H786.932V167H779.757V125.263H786.932V143.354H806.103V125.263H813.239V167ZM832.526 139.651H843.366C848.097 139.702 851.839 140.937 854.591 143.354C857.342 145.771 858.718 149.05 858.718 153.19C858.718 157.356 857.304 160.7 854.475 163.22C851.646 165.74 847.84 167 843.057 167H825.39V125.263H832.526V139.651ZM873.608 167H866.433V125.263H873.608V167ZM832.526 145.476V161.175H843.134C845.809 161.175 847.879 160.494 849.345 159.131C850.811 157.742 851.543 155.852 851.543 153.46C851.543 151.146 850.823 149.256 849.383 147.79C847.969 146.299 845.976 145.527 843.404 145.476H832.526ZM913.069 125.263H920.206V167H913.069V136.565L893.821 167H886.685V125.263H893.821V155.736L913.069 125.263ZM914.998 110.064C914.998 113.176 913.931 115.683 911.796 117.586C909.688 119.464 906.91 120.402 903.464 120.402C900.018 120.402 897.228 119.451 895.094 117.548C892.959 115.645 891.892 113.15 891.892 110.064H897.717C897.717 111.865 898.205 113.279 899.183 114.308C900.16 115.311 901.587 115.812 903.464 115.812C905.264 115.812 906.666 115.311 907.669 114.308C908.698 113.305 909.212 111.89 909.212 110.064H914.998ZM331.1 234.772H324.272V260H316.866V203.836H324.272V228.601H330.059L349.693 203.836H358.912L337.465 231.069L360.494 260H351.429L331.1 234.772ZM400.379 218.263V260H393.205V224.165H379.009L378.161 239.787C377.698 246.962 376.489 252.092 374.535 255.178C372.606 258.264 369.533 259.871 365.315 260H362.461V253.712L364.505 253.558C366.82 253.301 368.479 251.964 369.481 249.546C370.484 247.129 371.127 242.654 371.41 236.123L372.182 218.263H400.379ZM437.604 260C437.192 259.177 436.858 257.711 436.601 255.603C433.283 259.049 429.323 260.771 424.72 260.771C420.605 260.771 417.223 259.614 414.575 257.3C411.952 254.96 410.64 252.002 410.64 248.428C410.64 244.082 412.286 240.713 415.578 238.321C418.895 235.904 423.55 234.695 429.542 234.695H436.485V231.417C436.485 228.922 435.739 226.942 434.248 225.476C432.756 223.985 430.557 223.239 427.651 223.239C425.105 223.239 422.971 223.882 421.248 225.167C419.525 226.453 418.664 228.009 418.664 229.835H411.489C411.489 227.752 412.222 225.746 413.688 223.817C415.179 221.863 417.185 220.32 419.705 219.188C422.251 218.057 425.041 217.491 428.076 217.491C432.885 217.491 436.652 218.7 439.378 221.117C442.104 223.509 443.518 226.813 443.621 231.031V250.241C443.621 254.072 444.11 257.12 445.087 259.383V260H437.604ZM425.761 254.561C427.999 254.561 430.12 253.982 432.126 252.825C434.132 251.668 435.585 250.164 436.485 248.312V239.749H430.892C422.148 239.749 417.776 242.307 417.776 247.425C417.776 249.662 418.522 251.411 420.014 252.671C421.505 253.931 423.421 254.561 425.761 254.561ZM471.549 254.947C474.095 254.947 476.319 254.175 478.222 252.632C480.125 251.089 481.18 249.161 481.385 246.846H488.136C488.007 249.238 487.184 251.514 485.667 253.674C484.15 255.834 482.118 257.557 479.572 258.843C477.052 260.129 474.378 260.771 471.549 260.771C465.866 260.771 461.34 258.881 457.971 255.101C454.628 251.295 452.956 246.1 452.956 239.517V238.321C452.956 234.258 453.702 230.645 455.193 227.482C456.685 224.319 458.819 221.863 461.597 220.114C464.4 218.366 467.704 217.491 471.51 217.491C476.191 217.491 480.074 218.893 483.16 221.696C486.271 224.499 487.93 228.138 488.136 232.612H481.385C481.18 229.912 480.151 227.701 478.299 225.978C476.473 224.229 474.21 223.354 471.51 223.354C467.884 223.354 465.068 224.666 463.062 227.289C461.082 229.886 460.092 233.654 460.092 238.591V239.941C460.092 244.75 461.082 248.453 463.062 251.051C465.043 253.648 467.871 254.947 471.549 254.947ZM527.173 224.049H513.17V260H506.034V224.049H492.302V218.263H527.173V224.049ZM548.35 260.771C542.693 260.771 538.089 258.92 534.541 255.217C530.992 251.488 529.217 246.512 529.217 240.289V238.977C529.217 234.837 530.002 231.146 531.57 227.906C533.165 224.64 535.376 222.094 538.205 220.269C541.06 218.417 544.146 217.491 547.463 217.491C552.889 217.491 557.106 219.278 560.115 222.853C563.124 226.428 564.628 231.545 564.628 238.206V241.176H536.354C536.456 245.29 537.652 248.621 539.941 251.167C542.255 253.687 545.187 254.947 548.736 254.947C551.256 254.947 553.39 254.432 555.139 253.404C556.888 252.375 558.418 251.012 559.729 249.315L564.088 252.709C560.591 258.084 555.345 260.771 548.35 260.771ZM547.463 223.354C544.583 223.354 542.165 224.409 540.211 226.518C538.257 228.601 537.048 231.532 536.585 235.312H557.492V234.772C557.286 231.146 556.309 228.343 554.561 226.363C552.812 224.357 550.446 223.354 547.463 223.354ZM608.179 239.594C608.179 245.946 606.726 251.064 603.82 254.947C600.914 258.83 596.979 260.771 592.016 260.771C586.95 260.771 582.964 259.164 580.058 255.95V276.047H572.922V218.263H579.441L579.788 222.892C582.694 219.291 586.731 217.491 591.9 217.491C596.915 217.491 600.875 219.381 603.781 223.162C606.713 226.942 608.179 232.201 608.179 238.938V239.594ZM601.042 238.784C601.042 234.078 600.04 230.362 598.034 227.636C596.028 224.91 593.276 223.547 589.779 223.547C585.458 223.547 582.218 225.463 580.058 229.295V249.238C582.193 253.044 585.458 254.947 589.856 254.947C593.276 254.947 595.989 253.597 597.995 250.896C600.027 248.171 601.042 244.133 601.042 238.784Z" fill="white"/>
</svg>
