<?xml version="1.0" encoding="UTF-8"?> <svg xmlns="http://www.w3.org/2000/svg" width="130" height="30" viewBox="0 0 130 30" fill="none"> <path d="M2.82302 14.3618H0.231934V27.3292H2.82302V14.3618Z" fill="#221E1F"></path> <path d="M2.42104 2.68896L0.291504 4.16181L7.14623 14.1241L9.28033 12.6512L2.42104 2.68896ZM11.419 15.7341L9.28947 17.2116L16.263 27.3019L18.3971 25.829L11.419 15.7341Z" fill="#221E1F"></path> <path d="M18.365 2.69336H15.7739V25.8243H18.365V2.69336Z" fill="#221E1F"></path> <path d="M28.8436 24.7359C28.0302 24.7374 27.228 24.5472 26.5017 24.1807C25.7755 23.8143 25.1455 23.2819 24.663 22.6266C24.1804 21.9713 23.8587 21.2115 23.7239 20.4087C23.5891 19.6059 23.645 18.7826 23.887 18.0054C24.129 17.2282 24.5504 16.5189 25.1171 15.935C25.6838 15.351 26.3798 14.9088 27.149 14.644C27.9181 14.3792 28.7386 14.2994 29.5443 14.4109C30.3499 14.5224 31.1181 14.8222 31.7865 15.2859L33.2626 13.1544C32.0963 12.3504 30.7327 11.8806 29.3191 11.7961C27.9055 11.7115 26.4956 12.0153 25.242 12.6746C23.9884 13.334 22.9387 14.3237 22.2063 15.5369C21.474 16.7502 21.0869 18.1406 21.0869 19.5581C21.0869 20.9756 21.474 22.366 22.2063 23.5793C22.9387 24.7925 23.9884 25.7822 25.242 26.4416C26.4956 27.1009 27.9055 27.4047 29.3191 27.3201C30.7327 27.2356 32.0963 26.7658 33.2626 25.9618L31.7865 23.8257C30.9219 24.4244 29.8949 24.7436 28.8436 24.7405" fill="#221E1F"></path> <path d="M28.3402 16.2572L25.2925 20.6709L27.424 22.1455L30.4717 17.7317L28.3402 16.2572Z" fill="#221E1F"></path> <path d="M110.342 24.736C109.528 24.7374 108.726 24.5472 108 24.1808C107.274 23.8143 106.644 23.2819 106.161 22.6266C105.679 21.9714 105.357 21.2116 105.222 20.4087C105.087 19.6059 105.143 18.7826 105.385 18.0054C105.627 17.2282 106.049 16.519 106.615 15.935C107.182 15.3511 107.878 14.9088 108.647 14.6441C109.416 14.3793 110.237 14.2994 111.043 14.411C111.848 14.5225 112.616 14.8222 113.285 15.286L114.756 13.1545C113.46 12.2551 111.919 11.7761 110.342 11.7823C109.124 11.7835 107.924 12.071 106.838 12.6217C105.752 13.1724 104.811 13.9709 104.09 14.9527C103.369 15.9345 102.888 17.0722 102.687 18.274C102.486 19.4758 102.57 20.7081 102.932 21.8715C103.295 23.0349 103.925 24.0968 104.772 24.9715C105.62 25.8463 106.661 26.5094 107.812 26.9075C108.962 27.3055 110.19 27.4273 111.396 27.2631C112.603 27.0988 113.754 26.6531 114.756 25.9618L113.285 23.8257C112.42 24.4236 111.393 24.7428 110.342 24.7406" fill="#221E1F"></path> <path d="M109.839 16.2611L106.791 20.6748L108.923 22.1494L111.971 17.7356L109.839 16.2611Z" fill="#221E1F"></path> <path d="M39.0891 11.7686H36.498V18.25H39.0891V11.7686Z" fill="#221E1F"></path> <path d="M129.768 11.7686H123.292V14.362H129.768V11.7686Z" fill="#221E1F"></path> <path d="M49.4534 11.7686H46.8623V27.3294H49.4534V11.7686Z" fill="#221E1F"></path> <path d="M44.5866 24.3834C43.9955 24.6507 43.347 24.7656 42.7002 24.7177C42.0534 24.6697 41.4289 24.4604 40.8836 24.1089C40.3384 23.7573 39.8898 23.2747 39.5787 22.705C39.2676 22.1354 39.104 21.4968 39.1028 20.8477H36.5117C36.5117 21.9097 36.7724 22.9555 37.2708 23.893C37.7693 24.8305 38.4903 25.6311 39.3705 26.2242C40.2506 26.8174 41.2629 27.185 42.3182 27.2947C43.3736 27.4044 44.4397 27.2529 45.4229 26.8534L44.5866 24.3834Z" fill="#221E1F"></path> <path d="M99.3284 20.8477H96.7373V27.3291H99.3284V20.8477Z" fill="#221E1F"></path> <path d="M88.9641 11.7686H86.373V27.3294H88.9641V11.7686Z" fill="#221E1F"></path> <path d="M91.2398 14.7185C91.8307 14.4487 92.4798 14.3318 93.1276 14.3786C93.7754 14.4255 94.401 14.6345 94.947 14.9865C95.493 15.3386 95.9418 15.8223 96.2522 16.3933C96.5627 16.9643 96.7248 17.6042 96.7236 18.2542H99.3147C99.317 17.1914 99.0577 16.1444 98.5599 15.2056C98.062 14.2669 97.3408 13.4653 96.46 12.8717C95.5792 12.278 94.5659 11.9107 93.5096 11.802C92.4534 11.6933 91.3866 11.8467 90.4036 12.2485L91.2398 14.7185Z" fill="#221E1F"></path> <path d="M55.2844 20.8477H52.6934V27.3291H55.2844V20.8477Z" fill="#221E1F"></path> <path d="M60.7729 14.7185C60.182 14.4487 59.5329 14.3318 58.8851 14.3786C58.2373 14.4255 57.6117 14.6345 57.0657 14.9865C56.5197 15.3386 56.0709 15.8223 55.7605 16.3933C55.45 16.9643 55.2879 17.6042 55.2891 18.2542H52.698C52.6957 17.1914 52.955 16.1444 53.4529 15.2056C53.9507 14.2669 54.6719 13.4653 55.5527 12.8717C56.4335 12.278 57.4468 11.9107 58.5031 11.802C59.5594 11.6933 60.6261 11.8467 61.6092 12.2485L60.7729 14.7185Z" fill="#221E1F"></path> <path d="M120.701 16.9556H118.11V20.8435H120.701V16.9556Z" fill="#221E1F"></path> <path d="M126.199 24.3834C125.608 24.6507 124.959 24.7656 124.313 24.7177C123.666 24.6697 123.041 24.4604 122.496 24.1089C121.951 23.7573 121.502 23.2747 121.191 22.705C120.88 22.1354 120.716 21.4968 120.715 20.8477H118.124C118.124 21.9097 118.385 22.9555 118.883 23.893C119.382 24.8305 120.103 25.6311 120.983 26.2242C121.863 26.8174 122.875 27.185 123.931 27.2947C124.986 27.4044 126.052 27.2529 127.035 26.8534L126.199 24.3834Z" fill="#221E1F"></path> <path d="M72.8739 11.7866L72.129 14.3938C73.2212 14.7427 74.1744 15.4301 74.8507 16.3567C75.527 17.2834 75.8915 18.4012 75.8915 19.5488C75.8915 20.6963 75.527 21.8142 74.8507 22.7408C74.1744 23.6674 73.2212 24.3548 72.129 24.7037L72.8739 27.3109C74.5312 26.7989 75.981 25.769 77.0108 24.3721C78.0406 22.9752 78.5962 21.2848 78.5962 19.5488C78.5962 17.8127 78.0406 16.1224 77.0108 14.7255C75.981 13.3286 74.5312 12.2986 72.8739 11.7866V11.7866ZM69.1495 14.3069L68.4092 11.6997C66.6768 12.1545 65.1438 13.1709 64.0497 14.5902C62.9557 16.0095 62.3623 17.7516 62.3623 19.5442C62.3623 21.3368 62.9557 23.0789 64.0497 24.4982C65.1438 25.9175 66.6768 26.9339 68.4092 27.3887L69.1495 24.786C67.9838 24.4913 66.9496 23.8157 66.2108 22.8662C65.4721 21.9167 65.0709 20.7476 65.0709 19.5442C65.0709 18.3407 65.4721 17.1717 66.2108 16.2222C66.9496 15.2727 67.9838 14.5971 69.1495 14.3023" fill="#221E1F"></path> <path d="M83.7818 25.6827C83.7818 25.3624 83.6869 25.0494 83.5092 24.7831C83.3314 24.5168 83.0788 24.3093 82.7832 24.1867C82.4876 24.0642 82.1623 24.0321 81.8485 24.0946C81.5347 24.1571 81.2464 24.3113 81.0202 24.5377C80.794 24.7642 80.6399 25.0527 80.5775 25.3668C80.5151 25.6809 80.5471 26.0065 80.6695 26.3023C80.792 26.5982 80.9993 26.8511 81.2653 27.029C81.5314 27.2069 81.8441 27.3019 82.1641 27.3019C82.5931 27.3019 83.0046 27.1313 83.308 26.8276C83.6114 26.524 83.7818 26.1121 83.7818 25.6827Z" fill="#221E1F"></path> <path d="M120.701 2.69336H118.11V9.17478H120.701V2.69336Z" fill="#221E1F"></path> <path d="M127.826 2.69336C127.441 2.69427 127.065 2.80943 126.745 3.02429C126.426 3.23915 126.177 3.54406 126.03 3.90045C125.884 4.25685 125.846 4.64872 125.922 5.02652C125.998 5.40433 126.184 5.75109 126.457 6.02295C126.73 6.29482 127.077 6.47959 127.455 6.55388C127.833 6.62818 128.224 6.58868 128.58 6.44036C128.935 6.29204 129.239 6.04158 129.452 5.72064C129.665 5.39971 129.778 5.02271 129.777 4.63733C129.776 4.12133 129.57 3.62689 129.205 3.26246C128.841 2.89802 128.346 2.69336 127.831 2.69336H127.826ZM127.831 6.06443C127.549 6.06443 127.273 5.98073 127.038 5.82392C126.804 5.66711 126.621 5.44422 126.513 5.18345C126.405 4.92269 126.377 4.63574 126.432 4.35891C126.487 4.08208 126.623 3.8278 126.822 3.62821C127.022 3.42863 127.276 3.29271 127.552 3.23765C127.829 3.18258 128.116 3.21084 128.376 3.31886C128.637 3.42687 128.859 3.60979 129.016 3.84447C129.173 4.07916 129.256 4.35507 129.256 4.63733C129.256 5.01582 129.106 5.37881 128.839 5.64644C128.571 5.91407 128.209 6.06443 127.831 6.06443" fill="#221E1F"></path> <path d="M128.699 4.3814C128.699 3.96973 128.443 3.74561 127.967 3.74561H127.053V5.49746H127.51V5.04006H127.967L128.251 5.49746H128.708L128.356 4.88912C128.456 4.84892 128.54 4.77822 128.598 4.68706C128.655 4.59591 128.683 4.48895 128.676 4.3814H128.699ZM127.492 4.1527H127.903C128.095 4.1527 128.159 4.21673 128.159 4.37682C128.159 4.53692 128.063 4.59638 127.903 4.59638H127.492V4.1527Z" fill="#221E1F"></path> </svg> 