<?xml version="1.0" encoding="UTF-8"?>
<!DOCTYPE svg PUBLIC "-//W3C//DTD SVG 1.1//EN" "http://www.w3.org/Graphics/SVG/1.1/DTD/svg11.dtd">
<!-- Creator: CorelDRAW 2018 (64-Bit) -->
<svg xmlns="http://www.w3.org/2000/svg" xml:space="preserve" width="120mm" height="50mm" version="1.1" style="shape-rendering:geometricPrecision; text-rendering:geometricPrecision; image-rendering:optimizeQuality; fill-rule:evenodd; clip-rule:evenodd"
viewBox="0 0 12000 5000"
 xmlns:xlink="http://www.w3.org/1999/xlink">
 <defs>
  <style type="text/css">
   <![CDATA[
    .fil0 {fill:#FEFEFE}
    .fil1 {fill:#FEFEFE;fill-rule:nonzero}
   ]]>
  </style>
 </defs>
 <g id="Слой_x0020_1">
  <metadata id="CorelCorpID_0Corel-Layer"/>
  <g id="_867744572592">
   <path class="fil0" d="M1137.07 732.09l2661.04 0c309.36,0 562.47,253.11 562.47,562.47l0 2541.98c0,309.36 -253.11,562.47 -562.47,562.47l-2661.04 0c-309.36,0 -562.47,-253.11 -562.47,-562.47l0 -2541.98c0,-309.36 253.11,-562.47 562.47,-562.47zm349.01 1566.52l0 -1025.53 225.6 0 0 405.81 416.08 0 0 -405.81 225.62 0 0 1025.53 -225.62 0 0 -411.67 -416.08 0 0 411.67 -225.6 0zm1113.43 0l0 -1025.53 468.8 0c129.9,0 229.52,34.67 298.87,104.01 58.6,58.61 87.91,137.72 87.91,237.34 0,157.26 -73.26,263.23 -219.76,317.92l250.52 366.26 -263.7 0 -222.7 -328.17 -174.34 0 0 328.17 -225.6 0zm225.6 -527.42l228.55 0c54.7,0 97.19,-13.43 127.46,-40.28 30.28,-26.86 45.41,-62.76 45.41,-107.68 0,-47.87 -15.62,-84.25 -46.87,-109.15 -31.25,-24.91 -74.72,-37.36 -130.39,-37.36l-224.16 0 0 294.47zm-1339.03 2185.84l0 -1025.52 773.54 0 0 200.71 -549.4 0 0 208.03 483.47 0 0 200.71 -483.47 0 0 215.36 556.72 0 0 200.71 -780.86 0zm981.57 0l0 -1025.52 399.95 0c160.18,0 291.06,48.58 392.64,145.77 101.57,97.18 152.36,219.51 152.36,366.98 0,146.52 -51.04,268.61 -153.09,366.27 -102.07,97.67 -232.71,146.5 -391.91,146.5l-399.95 0zm225.61 -203.63l174.34 0c92.79,0 167.5,-28.58 224.16,-85.71 56.65,-57.14 84.96,-131.61 84.96,-223.43 0,-90.82 -28.56,-165.05 -85.7,-222.68 -57.13,-57.62 -131.61,-86.44 -223.42,-86.44l-174.34 0 0 618.26z"/>
   <polygon class="fil1" points="5244.53,2412.12 5244.53,1594.81 4932.55,1594.81 4932.55,1386.82 5782.08,1386.82 5782.08,1594.81 5470.1,1594.81 5470.1,2412.12 "/>
   <polygon id="1" class="fil1" points="5954.92,2412.12 5954.92,1386.82 6728.28,1386.82 6728.28,1587.49 6179.02,1587.49 6179.02,1795.48 6662.37,1795.48 6662.37,1996.14 6179.02,1996.14 6179.02,2211.45 6735.61,2211.45 6735.61,2412.12 "/>
   <path id="2" class="fil1" d="M7416.7 2429.7c-150.38,0 -275.61,-51.02 -375.7,-153.07 -100.09,-102.04 -150.13,-227.76 -150.13,-377.16 0,-148.42 50.29,-273.9 150.86,-376.43 100.58,-102.53 228.5,-153.79 383.76,-153.79 88.86,0 163.56,14.4 224.1,43.21 60.54,28.8 118.15,70.06 172.84,123.76l-134.76 155.26c-43.94,-40.03 -85.2,-69.08 -123.77,-87.15 -38.57,-18.06 -85.19,-27.09 -139.88,-27.09 -85.93,0 -156.96,31 -213.11,93 -56.15,62.01 -84.22,138.42 -84.22,229.23 0,89.84 28.07,166 84.22,228.5 56.15,62.49 127.18,93.74 213.11,93.74 54.69,0 102.05,-9.77 142.08,-29.3 40.04,-19.53 82.51,-49.8 127.43,-90.81l143.54 153.8c-55.66,59.56 -115.95,103.5 -180.89,131.82 -64.93,28.32 -144.76,42.48 -239.48,42.48z"/>
   <polygon id="3" class="fil1" points="8017.24,2412.12 8017.24,1386.82 8242.8,1386.82 8242.8,1792.55 8658.78,1792.55 8658.78,1386.82 8884.34,1386.82 8884.34,2412.12 8658.78,2412.12 8658.78,2000.54 8242.8,2000.54 8242.8,2412.12 "/>
   <path id="4" class="fil1" d="M5100.97 3639.43c-52.24,0 -95.72,-14.55 -130.44,-43.64 -34.71,-29.1 -52.07,-69.44 -52.07,-121.02 0,-56.2 19.34,-98.53 58.02,-126.96 38.69,-28.43 90.76,-42.65 156.23,-42.65 44.3,0 87.62,7.27 129.94,21.82l0 -8.93c0,-64.8 -38.03,-97.2 -114.07,-97.2 -45.63,0 -94.56,9.59 -146.8,28.76l-37.69 -115.06c64.8,-28.43 133.57,-42.65 206.31,-42.65 80.01,0 139.86,19.84 179.53,59.51 38.36,38.36 57.54,94.9 57.54,169.62l0 308.48 -145.81 0 0 -57.53c-40.34,44.97 -93.9,67.45 -160.69,67.45zm45.63 -104.15c35.04,0 63.48,-8.76 85.3,-26.29 21.82,-17.52 32.73,-39.84 32.73,-66.95l0 -26.78c-28.43,-13.23 -60.5,-19.84 -96.21,-19.84 -33.07,0 -58.69,6.45 -76.88,19.34 -18.18,12.9 -27.27,31.58 -27.27,56.05 0,19.83 7.6,35.54 22.81,47.11 15.21,11.57 35.05,17.36 59.52,17.36z"/>
   <polygon id="5" class="fil1" points="5537.4,3629.51 5537.4,3097.85 5688.17,3097.85 5688.17,3316.07 5878.61,3097.85 6052.2,3097.85 5856.79,3316.07 6076.99,3629.51 5898.45,3629.51 5756.61,3427.16 5688.17,3501.55 5688.17,3629.51 "/>
   <path id="6" class="fil1" d="M6394.4 3641.41c-79.35,0 -145.31,-26.78 -197.88,-80.34 -52.57,-53.56 -78.86,-119.03 -78.86,-196.4 0,-76.7 26.45,-142 79.35,-195.9 52.9,-53.89 119.36,-80.84 199.37,-80.84 85.31,0 155.73,31.08 211.28,93.24l-88.28 89.27c-37.03,-35.04 -78.36,-52.57 -123.99,-52.57 -37.03,0 -67.78,14.22 -92.24,42.65 -24.47,28.44 -36.71,63.15 -36.71,104.15 0,41.66 12.4,76.54 37.2,104.65 24.8,28.1 57.37,42.15 97.7,42.15 41.66,0 82.33,-18.84 122.01,-56.53l88.28 89.27c-29.1,31.74 -60.18,55.87 -93.24,72.41 -33.07,16.53 -74.4,24.79 -123.99,24.79z"/>
   <path id="7" class="fil1" d="M6961.76 3641.41c-80.67,0 -147.13,-25.62 -199.37,-76.87 -52.24,-51.25 -78.36,-117.87 -78.36,-199.87 0,-77.37 24.8,-142.83 74.39,-196.39 49.6,-53.57 112.42,-80.35 188.46,-80.35 83.98,0 148.13,27.78 192.43,83.32 44.31,55.55 66.46,123.99 66.46,205.33 0,7.93 -0.66,21.16 -1.98,39.67l-369.98 0c7.27,33.73 22.15,59.52 44.63,77.37 22.49,17.85 50.92,26.78 85.31,26.78 46.95,0 89.93,-18.18 128.94,-54.55l86.3 76.37c-53.56,66.13 -125.97,99.19 -217.23,99.19zm-129.94 -319.39l227.15 0c-4.63,-34.38 -16.7,-61.83 -36.21,-82.33 -19.5,-20.5 -44.8,-30.75 -75.88,-30.75 -30.41,0 -55.71,10.09 -75.88,30.26 -20.17,20.17 -33.23,47.77 -39.18,82.82z"/>
   <path id="8" class="fil1" d="M7381.33 3097.85l427.51 0 0 531.66 -150.77 0 0 -402.71 -134.9 0c0,70.09 -2.64,129.28 -7.93,177.55 -5.29,48.27 -12.57,87.62 -21.82,118.03 -9.26,30.42 -22.16,53.9 -38.69,70.43 -16.53,16.53 -34.38,27.77 -53.56,33.72 -19.18,5.96 -42.98,8.93 -71.42,8.93 -27.11,0 -52.57,-2.97 -76.37,-8.93l9.91 -122c11.91,1.98 22.49,2.98 31.75,2.98 15.87,0 28.43,-3.81 37.69,-11.41 9.26,-7.61 18.02,-24.8 26.28,-51.58 8.27,-26.78 14.05,-68.11 17.36,-123.99 3.31,-55.87 4.96,-130.1 4.96,-222.68z"/>
   <path id="9" class="fil1" d="M8195.68 3641.41c-80.67,0 -147.13,-25.62 -199.37,-76.87 -52.24,-51.25 -78.36,-117.87 -78.36,-199.87 0,-77.37 24.8,-142.83 74.39,-196.39 49.6,-53.57 112.42,-80.35 188.46,-80.35 83.98,0 148.13,27.78 192.43,83.32 44.31,55.55 66.46,123.99 66.46,205.33 0,7.93 -0.66,21.16 -1.98,39.67l-369.98 0c7.27,33.73 22.15,59.52 44.63,77.37 22.49,17.85 50.92,26.78 85.31,26.78 46.95,0 89.93,-18.18 128.94,-54.55l86.3 76.37c-53.56,66.13 -125.97,99.19 -217.23,99.19zm-129.94 -319.39l227.15 0c-4.63,-34.38 -16.7,-61.83 -36.21,-82.33 -19.5,-20.5 -44.8,-30.75 -75.88,-30.75 -30.41,0 -55.71,10.09 -75.88,30.26 -20.17,20.17 -33.23,47.77 -39.18,82.82z"/>
   <path id="10" class="fil1" d="M8551.77 3788.21l0 -690.36 150.77 0 0 76.38c42.32,-57.53 97.53,-86.3 165.65,-86.3 66.12,0 122.99,24.8 170.6,74.4 47.61,49.59 71.42,117.04 71.42,202.34 0,84.64 -23.64,151.6 -70.92,200.86 -47.28,49.27 -104.32,73.9 -171.1,73.9 -66.13,0 -121.35,-26.45 -165.65,-79.35l0 228.13 -150.77 0zm185.98 -317.9c24.8,27.44 55.38,41.16 91.75,41.16 36.37,0 67.12,-13.72 92.25,-41.16 25.13,-27.44 37.69,-63.32 37.69,-107.62 0,-42.98 -12.56,-78.2 -37.69,-105.64 -25.13,-27.44 -55.88,-41.16 -92.25,-41.16 -36.37,0 -66.95,13.72 -91.75,41.16 -24.8,27.44 -37.2,63.32 -37.2,107.62 0,42.99 12.4,78.2 37.2,105.64z"/>
   <path id="11" class="fil1" d="M9372.07 3639.43c-52.24,0 -95.72,-14.55 -130.44,-43.64 -34.71,-29.1 -52.07,-69.44 -52.07,-121.02 0,-56.2 19.34,-98.53 58.02,-126.96 38.69,-28.43 90.76,-42.65 156.23,-42.65 44.3,0 87.62,7.27 129.94,21.82l0 -8.93c0,-64.8 -38.03,-97.2 -114.07,-97.2 -45.63,0 -94.56,9.59 -146.8,28.76l-37.69 -115.06c64.8,-28.43 133.57,-42.65 206.31,-42.65 80.01,0 139.86,19.84 179.53,59.51 38.36,38.36 57.54,94.9 57.54,169.62l0 308.48 -145.81 0 0 -57.53c-40.34,44.97 -93.9,67.45 -160.69,67.45zm45.63 -104.15c35.04,0 63.48,-8.76 85.3,-26.29 21.82,-17.52 32.73,-39.84 32.73,-66.95l0 -26.78c-28.43,-13.23 -60.5,-19.84 -96.21,-19.84 -33.07,0 -58.69,6.45 -76.88,19.34 -18.18,12.9 -27.27,31.58 -27.27,56.05 0,19.83 7.6,35.54 22.81,47.11 15.21,11.57 35.05,17.36 59.52,17.36z"/>
   <polygon id="12" class="fil1" points="10224.11,3097.85 10224.11,3226.8 10066.39,3226.8 10066.39,3629.51 9913.64,3629.51 9913.64,3226.8 9755.93,3226.8 9755.93,3097.85 "/>
   <path id="13" class="fil1" d="M10773.12 3561.07c-55.22,53.56 -123.82,80.34 -205.82,80.34 -82,0 -150.27,-26.61 -204.83,-79.85 -54.55,-53.23 -81.83,-118.86 -81.83,-196.89 0,-77.37 27.61,-142.83 82.82,-196.39 55.22,-53.57 123.83,-80.35 205.82,-80.35 82,0 150.28,26.62 204.83,79.85 54.55,53.23 81.83,118.86 81.83,196.89 0,77.37 -27.61,142.84 -82.82,196.4zm-203.84 -49.6c41.66,0 75.06,-14.05 100.18,-42.15 25.13,-28.11 37.7,-62.99 37.7,-104.65 0,-40.33 -13.06,-74.89 -39.18,-103.65 -26.12,-28.77 -59.68,-43.15 -100.68,-43.15 -41.66,0 -75.05,14.05 -100.18,42.16 -25.13,28.1 -37.7,62.98 -37.7,104.64 0,40.34 13.06,74.89 39.18,103.66 26.12,28.76 59.68,43.14 100.68,43.14z"/>
   <path id="14" class="fil1" d="M10965.05 3788.21l0 -690.36 150.77 0 0 76.38c42.32,-57.53 97.53,-86.3 165.65,-86.3 66.12,0 122.99,24.8 170.6,74.4 47.61,49.59 71.42,117.04 71.42,202.34 0,84.64 -23.64,151.6 -70.92,200.86 -47.28,49.27 -104.32,73.9 -171.1,73.9 -66.13,0 -121.35,-26.45 -165.65,-79.35l0 228.13 -150.77 0zm185.98 -317.9c24.8,27.44 55.38,41.16 91.75,41.16 36.37,0 67.12,-13.72 92.25,-41.16 25.13,-27.44 37.69,-63.32 37.69,-107.62 0,-42.98 -12.56,-78.2 -37.69,-105.64 -25.13,-27.44 -55.88,-41.16 -92.25,-41.16 -36.37,0 -66.95,13.72 -91.75,41.16 -24.8,27.44 -37.2,63.32 -37.2,107.62 0,42.99 12.4,78.2 37.2,105.64z"/>
  </g>
 </g>
</svg>
