<svg xmlns="http://www.w3.org/2000/svg" viewBox="0 0 375 186.54"><defs><style>.cls-1{fill:#fff;}</style></defs><title>ТилТех</title><g id="Слой_2" data-name="Слой 2"><g id="Layer_1" data-name="Layer 1"><path class="cls-1" d="M42.28,6.59V94.22a49.19,49.19,0,0,0-6.05-.4,43.75,43.75,0,0,0-6.06.4V6.59A295,295,0,0,0,0,8.24c0-.47.12-1.16.24-2.08a18.83,18.83,0,0,0,.16-2,17.21,17.21,0,0,0-.16-2C.12,1.28,0,.56,0,0H71.08c0,.34-.07.77-.14,1.3s-.13,1.05-.18,1.58a11.5,11.5,0,0,0-.09,1.26c0,.31,0,.73.07,1.24s.11,1.06.19,1.62.13,1,.15,1.24A245.85,245.85,0,0,0,42.28,6.59Z"/><path class="cls-1" d="M84.86,76.33q4.17-4.52,9-10.11t10-12q5.16-6.36,10.29-13t9.54-12.85h5.52V94.22c-.63,0-1.56-.12-2.8-.23s-2.14-.17-2.72-.17-1.58.05-2.79.17-2.12.19-2.73.23V46.29q-7.56,8.51-14.12,16.24T90.93,78.6q-6.57,8.33-11.59,15.62H73.83V28.36a24.44,24.44,0,0,0,5.51.44,26.52,26.52,0,0,0,5.52-.44Z"/><path class="cls-1" d="M157.05,64.62,146,94.36l-2.16-.24a22.29,22.29,0,0,0-2.25-.17,21.17,21.17,0,0,0-2.12.17l-2.29.24q3-6.19,6.58-14t8-18q4.41-10.16,7.75-18.42t5.79-15.41c2.62.29,4,.44,4.13.44.5,0,1.91-.15,4.24-.44q4.2,11.42,12.51,31.79t14.5,34.08l-2.91-.24c-1.4-.11-2.49-.17-3.28-.17-.58,0-1.53.06-2.84.17s-2.38.19-3.21.24q-6.25-20.76-20.56-53-1.84,1.92-5.78,11.3Z"/><path class="cls-1" d="M236,6.59V94.22a49.47,49.47,0,0,0-6.06-.4,43.75,43.75,0,0,0-6.06.4V6.59a295.31,295.31,0,0,0-30.17,1.65c.05-.47.13-1.16.24-2.08a19.54,19.54,0,0,0,.17-2,17.74,17.74,0,0,0-.17-2c-.11-.87-.19-1.59-.24-2.15h71.08c0,.34-.07.77-.13,1.3s-.13,1.05-.19,1.58a11.1,11.1,0,0,0-.08,1.26c0,.31,0,.73.06,1.24s.11,1.06.19,1.62.13,1,.15,1.24A245.8,245.8,0,0,0,236,6.59Z"/><path class="cls-1" d="M308.05,80l-.13,7.16q-11.37,8.15-23.72,8.14a34.57,34.57,0,0,1-16.88-4,28.32,28.32,0,0,1-11.53-11.72,37.89,37.89,0,0,1-4.12-18.14,40.08,40.08,0,0,1,3.67-17.37,28,28,0,0,1,10.8-12.11q7.13-4.39,17.09-4.39a29.42,29.42,0,0,1,14,3.41A25.31,25.31,0,0,1,307.5,41.31q3.84,6.93,3.85,16.95c0,.32,0,.81-.07,1.48s-.07,1.19-.07,1.55q-14.06-.4-28-.4H263.82a22.6,22.6,0,0,0-.14,2.89,30.19,30.19,0,0,0,2.78,13,21.7,21.7,0,0,0,8.24,9.32,23.88,23.88,0,0,0,12.93,3.43Q298.16,89.55,308.05,80ZM263.82,55.81h36.63q-.54-24-17.22-24a16,16,0,0,0-10.35,3.43,21.51,21.51,0,0,0-6.44,8.9A38.41,38.41,0,0,0,263.82,55.81Z"/><path class="cls-1" d="M339.31,61.73,314.25,28.36c.65,0,1.71.13,3.17.25s2.76.19,3.86.19,2.17-.07,3.56-.19,2.55-.21,3.47-.25q3,5.34,8.46,13.13t9.3,12.5l7.7-9.92,11.57-15.71c.45,0,1.17.13,2.16.25a21.6,21.6,0,0,0,2.55.19,19.69,19.69,0,0,0,2.47-.19c.94-.12,1.71-.21,2.34-.25Q361.65,42.45,349.23,58L375,92.84v1.38c-.95,0-2.09-.12-3.45-.23s-2.36-.17-3-.17-1.86.05-3.3.17l-3.19.23a301.88,301.88,0,0,0-19.41-28.36q-12.72,16.76-19.85,28.36c-.56,0-1.28-.12-2.15-.23a15.61,15.61,0,0,0-2-.17,17.4,17.4,0,0,0-2.15.17l-2,.23V92.84Q331.58,71.59,339.31,61.73Z"/><path class="cls-1" d="M86.68,130.09,72,144.16l-5.48,5.54c1.27,1.45,2.56,2.92,3.89,4.41s2.63,3,3.93,4.42l4.25,4.79q2.31,2.61,3.6,4.12l5.23,6.46v.32l-1.88-.11c-.77-.06-1.33-.08-1.66-.08s-1,0-1.86.08l-1.77.11a62.7,62.7,0,0,0-4.44-5.86L61.77,151.89a1.73,1.73,0,0,0-.91-.31c-.13,0-.19,0-.19.12v22.52l-1.48-.11c-.62-.06-1.07-.08-1.35-.08s-.83,0-1.47.08l-1.37.11V130.09l.84.07,1.11.09.89,0c.2,0,.48,0,.84,0l1.11-.09.88-.06V150q0,.12.33.12a2.24,2.24,0,0,0,1.28-.5,45.72,45.72,0,0,0,3.43-3.17l15.87-16.38,1.31.12a11.69,11.69,0,0,0,1.27.07c.17,0,.41,0,.74,0l1-.09Z"/><path class="cls-1" d="M105.66,129.11,125,174.22l-1.74-.11c-.73-.06-1.27-.08-1.62-.08s-1,0-1.78.08l-1.65.11q-.83-2.39-2-5.54c-.79-2.11-1.57-4.14-2.36-6.09s-1.6-3.89-2.43-5.8H95.07Q90.23,169,88.68,174.22l-1.27-.11A9.72,9.72,0,0,0,86.3,174a10.76,10.76,0,0,0-1.22.08l-1,.11,20.14-45.11Zm4.83,25-7.16-16.51-7,16.51Z"/><path class="cls-1" d="M126.3,130.09h38.52v44.13l-1.5-.11c-.61-.06-1-.08-1.34-.08s-.82,0-1.46.08l-1.37.11V133.3q-6.87-.18-13.56-.19c-4.43,0-9,.07-13.62.19v40.92l-1.48-.11c-.62-.06-1.07-.08-1.35-.08s-.83,0-1.47.08l-1.37.11Z"/><path class="cls-1" d="M171.54,174.22V130.09a12.67,12.67,0,0,0,2.84.19c.22,0,1.16-.06,2.83-.19v33.68h.65l29.36-33.68h2.84v44.13a26.56,26.56,0,0,0-2.84-.19c-.63,0-1.57.06-2.83.19V139h-.65l-26.91,31.29q-1.77,2-3.35,3.94Z"/><path class="cls-1" d="M232.06,133.18v41a22.42,22.42,0,0,0-2.84-.19,19.87,19.87,0,0,0-2.83.19v-41a136.82,136.82,0,0,0-14.13.77c0-.22.06-.55.11-1s.08-.74.08-.94a8.66,8.66,0,0,0-.08-.93c-.05-.41-.09-.75-.11-1h33.29c0,.16,0,.36-.07.61l-.09.74c0,.24,0,.44,0,.59s0,.34,0,.58.05.49.08.76.06.45.08.58A114.18,114.18,0,0,0,232.06,133.18Z"/><path class="cls-1" d="M263.87,129.11l19.37,45.11-1.75-.11c-.73-.06-1.26-.08-1.61-.08s-1,0-1.78.08l-1.65.11c-.55-1.59-1.21-3.44-2-5.54s-1.56-4.14-2.35-6.09-1.6-3.89-2.43-5.8H253.29q-4.86,12.22-6.4,17.43l-1.27-.11a9.58,9.58,0,0,0-1.11-.08,10.9,10.9,0,0,0-1.22.08l-1,.11,20.13-45.11Zm4.84,25-7.17-16.51-7,16.51Z"/><path class="cls-1" d="M298.51,137.12q-9.88,22.42-14.7,37.1l-1.18-.11a10.89,10.89,0,0,0-1.21-.08,10.16,10.16,0,0,0-1.12.08l-1.2.11q.7-1.35,3.51-7.47t6.09-13.65q3.3-7.5,6.05-14t3.51-9h3q1.74,4.24,5.65,13.69t7.83,18.69q3.93,9.25,5.22,11.75c-.27,0-.77-.06-1.49-.11s-1.25-.08-1.6-.08-.84,0-1.5.08l-1.67.11q-.4-1.12-2.19-5.62t-4.76-12q-3-7.56-4.91-12.4l-2.79-7Z"/><path class="cls-1" d="M22,118.59H353a1.2,1.2,0,0,0,0-2.4H22a1.2,1.2,0,1,0,0,2.4"/><path class="cls-1" d="M22,186.54H353a1.21,1.21,0,0,0,0-2.41H22a1.21,1.21,0,0,0,0,2.41"/></g></g></svg>