<svg width="226" height="250" xmlns="http://www.w3.org/2000/svg"><g fill-rule="nonzero" fill="none"><path d="M220.748 130.45c-11.51-11.452-24.815-.733-24.815-.733V69.432a3.667 3.667 0 00-7.336 0v65.443s-17.494 13.784-25.013 17.153V43.482c0-5.046 4.106-9.15 9.155-9.15h6.703c5.049 0 9.155 4.104 9.155 9.15V54.42a3.666 3.666 0 003.669 3.667 3.666 3.666 0 003.667-3.667V43.482c0-9.089-7.397-16.482-16.491-16.482h-6.703c-9.094 0-16.493 7.393-16.493 16.482v111.452a38.573 38.573 0 01-6.715 1.25V78.877c0-9.135-7.435-16.566-16.573-16.566h-6.541c-9.138 0-16.573 7.43-16.573 16.566v37.36l-6.717 3.564V107.37c0-8.224-6.694-14.914-14.92-14.914h-9.845c-8.229 0-14.92 6.69-14.92 14.914v33.488l-11.98 6.354-33.64 9.608a23.055 23.055 0 00-13.76 10.785 23.033 23.033 0 00-2.308 17.327L5.517 199.4a3.669 3.669 0 007.1-1.847l-3.762-14.467c-2.182-8.392 2.643-16.834 10.986-19.215l30.755-8.786 23.116 61.662c1.548 4.13 1.304 15.91-10.924 20.25l-23.242 5.278a15.213 15.213 0 01-18.173-11.053l-4.718-18.145a3.669 3.669 0 00-7.103 1.845l4.72 18.147C16.925 243.264 25.986 250 36.074 250c7.412 0 28.34-5.852 28.34-5.852a22.6 22.6 0 0017.116-26.706l80.41-19.675a46.28 46.28 0 0018.253-9.131l39.131-32.135c11.93-10.575 4.932-22.562 1.424-26.051zm-94.331-60.805h6.54c5.093 0 9.236 4.143 9.236 9.233v77.489l-23.15-.01c-2.127-.019-.656-1.423-.54-1.518l6.668-5.397c6.22-5.037 10.282-12.038 12.073-20.814 1.137-5.567-.988-11.14-5.542-14.544-4.253-3.178-9.724-3.789-14.52-1.688V78.878c0-5.09 4.142-9.233 9.235-9.233zM70.779 107.37c0-4.179 3.402-7.58 7.583-7.58h9.845c4.18 0 7.584 3.401 7.584 7.58v16.326l-25.014 13.27v-29.596h.002zm143.888 43.467l-39.133 32.135a38.854 38.854 0 01-15.338 7.672l-81.003 19.823-21.784-58.104 62.2-32.999c2.527-1.343 5.407-1.12 7.698.594 2.291 1.713 3.32 4.406 2.748 7.206-1.443 7.065-4.64 12.643-9.503 16.58l-6.667 5.399c-2.732 2.211-3.74 5.781-2.566 9.095 1.173 3.311 4.204 5.454 7.72 5.454l26.731.012h.02a45.762 45.762 0 0026.446-8.364l29.875-20.997a10.337 10.337 0 0113.388 1.234c2.058 2.1 6.086 8.344-.832 15.26z" fill="#FFF"/><path d="M60 219.501C60 211.506 53.496 205 45.5 205S31 211.506 31 219.501C31 227.494 37.504 234 45.5 234S60 227.494 60 219.501zm-21.639 0c0-3.937 3.202-7.14 7.139-7.14 3.936 0 7.139 3.203 7.139 7.14a7.146 7.146 0 01-7.139 7.138 7.146 7.146 0 01-7.139-7.138zM19.26 115.525l53.248-53.898 11.978 6.222a11.227 11.227 0 0012.992-1.899l28.985-28.025s-.798 14.394 11.27 14.394c6.211 0 11.267-5.078 11.267-11.32v-29.68l-.002-.108C148.958 3.467 143.32 0 137.732 0h-29.291c-6.214 0-11.268 5.078-11.268 11.318 0 12.441 12.605 11.318 12.605 11.318l-22.112 21.38-12.15-6.313c-4.395-2.285-9.689-1.447-13.176 2.079L3.265 99.579c-4.377 4.43-4.35 11.61.06 16.007 2.126 2.118 9.384 6.52 15.935-.061zM8.464 104.762l59.075-59.796c.763-.77 1.988-2.12 4.61-.727l14.483 7.524a3.65 3.65 0 004.224-.617l30.549-29.537a3.691 3.691 0 00.856-4.026 3.66 3.66 0 00-3.397-2.304H108.44c-2.173 0-3.942-1.776-3.942-3.96s1.769-3.96 3.942-3.96h29.291c1.078 0 3.94 0 3.94 3.936l.002.1v29.604c0 2.183-1.769 3.96-3.942 3.96-2.175 0-3.943-1.777-3.943-3.96V29.276a3.68 3.68 0 00-2.229-3.386 3.649 3.649 0 00-3.974.736L92.398 60.65a3.928 3.928 0 01-4.545.665L73.487 53.85a3.654 3.654 0 00-4.283.677L14.061 110.34c-2.403 2.415-4.832.763-5.576.021a3.979 3.979 0 01-.021-5.6z" fill="#FF0069"/></g></svg>