<svg width="250" height="249" xmlns="http://www.w3.org/2000/svg"><g fill-rule="nonzero" fill="none"><path d="M204.102 158.203c-15.876 0-29.894 8.103-38.14 20.39l-63.534-33.31a52.934 52.934 0 004.02-20.283 53.18 53.18 0 00-4.01-20.29l63.525-33.304c8.245 12.288 22.263 20.39 38.139 20.39C229.41 91.797 250 71.208 250 45.899 250 20.59 229.41 0 204.102 0c-25.309 0-45.899 20.59-45.899 45.898a45.65 45.65 0 003.211 16.867L97.896 96.067a53.363 53.363 0 00-21.107-18.802 4.883 4.883 0 00-4.329 8.753C87.4 93.408 96.682 108.344 96.682 125c0 10.338-3.631 19.844-9.683 27.313-4.098-7.844-10.806-13.976-18.836-17.41a19.962 19.962 0 005.104-13.345v-3.79c0-11.053-8.991-20.044-20.043-20.044-11.053 0-20.044 8.99-20.044 20.043v3.79c0 5.122 1.933 9.798 5.104 13.345-8.03 3.435-14.738 9.567-18.836 17.411-6.051-7.468-9.682-16.974-9.682-27.313 0-16.656 9.281-31.593 24.223-38.982a4.883 4.883 0 00-4.329-8.753A53.368 53.368 0 008.244 96.536 53.067 53.067 0 000 125c0 29.348 23.876 53.224 53.224 53.224 18.69 0 35.158-9.685 44.656-24.298l63.534 33.309a45.65 45.65 0 00-3.21 16.867c0 25.308 20.589 45.898 45.898 45.898C229.41 250 250 229.41 250 204.102c0-25.309-20.59-45.899-45.898-45.899zm-21.458-83.255c3.594-8.508 12.02-14.224 21.458-14.224 9.437 0 17.862 5.716 21.458 14.224a35.939 35.939 0 01-21.458 7.083 35.939 35.939 0 01-21.458-7.083zm13.477-31.97v-3.215c0-4.401 3.58-7.981 7.98-7.981 4.401 0 7.982 3.58 7.982 7.98v3.217c0 4.4-3.58 7.98-7.981 7.98-4.4 0-7.98-3.58-7.98-7.98zm7.98-33.212c19.924 0 36.133 16.209 36.133 36.132a35.944 35.944 0 01-7.362 21.829 33.193 33.193 0 00-14.898-13.7 17.656 17.656 0 003.874-11.048v-3.216c0-9.786-7.96-17.747-17.746-17.747-9.786 0-17.747 7.961-17.747 17.747v3.216c0 4.174 1.453 8.014 3.874 11.048a33.197 33.197 0 00-14.897 13.7 35.943 35.943 0 01-7.363-21.829c0-19.923 16.209-36.132 36.133-36.132zM42.947 117.768c0-5.667 4.61-10.278 10.278-10.278s10.278 4.61 10.278 10.278v3.79c0 5.667-4.61 10.278-10.278 10.278-5.667 0-10.278-4.61-10.278-10.278v-3.79zm-16.072 41.765c4.215-10.694 14.642-17.93 26.35-17.93 11.708 0 22.135 7.235 26.35 17.93-7.315 5.595-16.45 8.925-26.35 8.925-9.9 0-19.036-3.33-26.35-8.925zm155.77 73.618c3.594-8.507 12.02-14.224 21.458-14.224 9.437 0 17.862 5.717 21.458 14.224a35.939 35.939 0 01-21.458 7.083 35.939 35.939 0 01-21.458-7.083zm13.477-31.97v-3.215c0-4.401 3.58-7.981 7.98-7.981 4.401 0 7.982 3.58 7.982 7.98v3.217c0 4.4-3.58 7.98-7.981 7.98-4.4 0-7.98-3.58-7.98-7.98zm36.75 24.749a33.193 33.193 0 00-14.897-13.7 17.656 17.656 0 003.874-11.048v-3.216c0-9.786-7.96-17.747-17.746-17.747-9.786 0-17.747 7.961-17.747 17.747v3.216c0 4.174 1.453 8.014 3.874 11.048a33.197 33.197 0 00-14.897 13.7 35.943 35.943 0 01-7.363-21.828c0-19.924 16.209-36.133 36.133-36.133 19.923 0 36.132 16.209 36.132 36.133a35.944 35.944 0 01-7.362 21.828z" fill="#FFF"/><path d="M53 82a5.034 5.034 0 003.535-1.466A5.015 5.015 0 0058 77c0-1.315-.53-2.605-1.465-3.535A5.028 5.028 0 0053 72a5.036 5.036 0 00-3.535 1.465A5.029 5.029 0 0048 77c0 1.315.535 2.605 1.465 3.534.93.931 2.22 1.466 3.535 1.466z" fill="#FF0069"/></g></svg>