<svg version="1.1" xmlns="http://www.w3.org/2000/svg" x="0" y="0" viewBox="0 0 169 40" xml:space="preserve"><style>.st0{fill:#fff}</style><path class="st0" d="M8.6 29.9l7.5-4.3-7.6-4.3L1 25.6zM.1 35.7L7.7 40v-8.6L.1 27.1zM9.4 19.7L17 24v-8.5l-7.6-4.4zM17.9 13.9l17-9.6L27.3 0 10.4 9.6z"/><path class="st0" d="M26.9 19.5l8.9-5.1V5.8l-17 9.6v10.1c0 .3-.2.6-.5.8l-8.9 5.1V40l17-9.6V20.3c0-.4.2-.7.5-.8zM139.6 15.2l-.2 1.9c-.8-.9-2.7-2.3-5.4-2.3-5.7 0-10 4.8-10 11.1S128.3 37 134 37c2.8 0 4.6-1.4 5.4-2.3l.2 1.8h5.9V15.2h-5.9zM134.7 31c-2.6 0-4.7-2.3-4.7-5.2 0-2.9 2.1-5.2 4.7-5.2s4.7 2.3 4.7 5.2c0 2.8-2.1 5.2-4.7 5.2zM97.7 4.3c-2.2-.6-4.4.7-4.9 2.9-.6 2.2.7 4.4 2.9 4.9 2.2.6 4.4-.7 4.9-2.9s-.8-4.4-2.9-4.9M93.5 15.1h6.2v21.2h-6.2zM104 4.1h6.2v32.3H104zM114.5 4.1h6.2v32.3h-6.2zM169 15.1h-19.2v5.5h8.9l-9.8 15.8h19.9v-5.6h-9.4zM90.3 15.2h-7.2l-7.8 9.9v-21h-6.2v32.3h6.2v-10l7.8 10h7.2L82 25.8zM57.8 17.7c-2.9-1.8-5.4-3.3-5.2-5.5.2-2.5 2.7-3.1 4.3-3.1 2 0 3.8 1 4.5 1.5l3.3-4.1v-.1c-1.2-1.3-4.3-2.9-7.8-2.9-6.8 0-10.3 4.1-10.7 8.2-.5 5.4 4.1 8.1 8 10.5 2.9 1.8 5.4 3.3 5.2 5.5-.1 1.2-.8 3.2-4.4 3.2-1.9 0-4.1-.9-6.8-3.5l-3.7 4.5c2.7 2.9 6.4 4.6 10.1 4.6h.1c6.5 0 10.7-3.2 11-8.7.5-5-4-7.7-7.9-10.1"/></svg>