<?xml version="1.0" encoding="UTF-8"?>
<svg width="152px" height="152px" viewBox="0 0 152 152" version="1.1" xmlns="http://www.w3.org/2000/svg" xmlns:xlink="http://www.w3.org/1999/xlink">
    <!-- Generator: Sketch 62 (91390) - https://sketch.com -->
    <title>smile</title>
    <desc>Created with Sketch.</desc>
    <defs>
        <path d="M111.328125,65.3125 C108.048844,65.3125 105.390625,62.6542813 105.390625,59.375 C105.390625,57.7380313 104.058844,56.40625 102.421875,56.40625 C100.784906,56.40625 99.453125,57.7380313 99.453125,59.375 C99.453125,62.6542813 96.7949062,65.3125 93.515625,65.3125 C90.2363437,65.3125 87.578125,62.6542813 87.578125,59.375 C87.578125,51.1901563 94.2370312,44.53125 102.421875,44.53125 C110.606719,44.53125 117.265625,51.1901563 117.265625,59.375 C117.265625,62.6542813 114.607406,65.3125 111.328125,65.3125 Z M64.71875,59.375 C64.71875,51.1901563 58.0598437,44.53125 49.875,44.53125 C41.6901562,44.53125 35.03125,51.1901563 35.03125,59.375 C35.03125,62.6542813 37.6894687,65.3125 40.96875,65.3125 C44.2480312,65.3125 46.90625,62.6542813 46.90625,59.375 C46.90625,57.7380313 48.2380312,56.40625 49.875,56.40625 C51.5119687,56.40625 52.84375,57.7380313 52.84375,59.375 C52.84375,62.6542813 55.5019687,65.3125 58.78125,65.3125 C62.0605312,65.3125 64.71875,62.6542813 64.71875,59.375 Z M115.324359,141.047391 C118.129234,139.348375 119.0255,135.697406 117.326781,132.892828 C115.627766,130.087953 111.9765,129.191391 109.172219,130.890406 C99.1987031,136.931813 87.7280469,140.125 76,140.125 C40.6412969,140.125 11.875,111.358703 11.875,76 C11.875,40.6412969 40.6412969,11.875 76,11.875 C111.358703,11.875 140.125,40.6412969 140.125,76 C140.125,88.6436094 136.365078,100.950563 129.251656,111.590859 C127.429141,114.317063 128.161531,118.00425 130.887734,119.826766 C133.613937,121.649578 137.301422,120.916594 139.123641,118.190688 C147.547172,105.590719 152,91.0013906 152,76 C152,55.6996875 144.094516,36.6144844 129.740312,22.2596875 C115.385516,7.90548438 96.3003125,0 76,0 C55.6996875,0 36.6144844,7.90548438 22.2596875,22.2596875 C7.90548438,36.6144844 0,55.6996875 0,76 C0,96.3003125 7.90548438,115.385516 22.2596875,129.740313 C36.6144844,144.094516 55.6996875,152 76,152 C89.8976094,152 103.495672,148.212766 115.324359,141.047391 L115.324359,141.047391 Z M101.53125,86.390625 C99.598,86.390625 97.885625,87.3189531 96.8014375,88.7492969 C96.8014375,88.7492969 89.0773437,97.078125 76,97.078125 C62.9226562,97.078125 55.1985625,88.7492969 55.1985625,88.7492969 C54.114375,87.3189531 52.402,86.390625 50.46875,86.390625 C47.1894687,86.390625 44.53125,89.0488438 44.53125,92.328125 C44.53125,94.0176406 45.2401875,95.5385313 46.3730625,96.61975 C47.4468594,97.8108125 57.9805781,108.953125 76,108.953125 C94.0194219,108.953125 104.553141,97.8108125 105.626937,96.61975 C106.759812,95.5385313 107.46875,94.0176406 107.46875,92.328125 C107.46875,89.0488438 104.810531,86.390625 101.53125,86.390625 L101.53125,86.390625 Z" id="path-1"></path>
    </defs>
    <g id="Page-1" stroke="none" stroke-width="1" fill="none" fill-rule="evenodd">
        <g id="thx" transform="translate(-884.000000, -117.000000)">
            <g id="smile" transform="translate(884.000000, 117.000000)">
                <g id="Oval">
                    <mask id="mask-2" fill="white">
                        <use xlink:href="#path-1"></use>
                    </mask>
                    <use id="Mask" fill="#FFFFFF" fill-rule="nonzero" xlink:href="#path-1"></use>
                    <circle fill="#FF2D7C" fill-rule="nonzero" mask="url(#mask-2)" cx="80.2222222" cy="71.7777778" r="48.3209877"></circle>
                </g>
            </g>
        </g>
    </g>
</svg>