<?xml version="1.0" encoding="UTF-8"?>
<svg width="1483px" height="410px" viewBox="0 0 1483 410" version="1.1" xmlns="http://www.w3.org/2000/svg" xmlns:xlink="http://www.w3.org/1999/xlink">
    <!-- Generator: Sketch 62 (91390) - https://sketch.com -->
    <title>Group 2</title>
    <desc>Created with Sketch.</desc>
    <defs>
        <linearGradient x1="-13.6852633%" y1="48.8859044%" x2="100%" y2="52.0913098%" id="linearGradient-1">
            <stop stop-color="#4806BD" offset="0%"></stop>
            <stop stop-color="#FF0036" offset="100%"></stop>
        </linearGradient>
        <linearGradient x1="0%" y1="49.6470652%" x2="100%" y2="50.3529348%" id="linearGradient-2">
            <stop stop-color="#4806BD" offset="0%"></stop>
            <stop stop-color="#FF0036" offset="100%"></stop>
        </linearGradient>
        <linearGradient x1="50%" y1="0%" x2="50%" y2="100%" id="linearGradient-3">
            <stop stop-color="#4806BD" offset="0%"></stop>
            <stop stop-color="#FF0036" offset="100%"></stop>
        </linearGradient>
    </defs>
    <g id="Page-1" stroke="none" stroke-width="1" fill="none" fill-rule="evenodd">
        <g id="social-tech-challenge-copy" transform="translate(-163.000000, -290.000000)" fill-rule="nonzero">
            <g id="Group-2" transform="translate(164.000000, 293.000000)">
                <path d="M100.913559,265.784163 C160.416483,265.784163 192.512,228.709739 192.512,185.516234 C192.512,104.168467 78.554885,112.807167 78.554885,76.0926885 C78.554885,65.6542582 86.849232,57.7354489 105.962292,57.7354489 C126.157224,57.7354489 148.515899,67.8139334 162.94085,80.4120389 L189.62701,28.9397791 C167.268335,9.14275612 137.697185,-0.215836572 108.847283,-0.215836572 C54.7537154,-0.215836572 15.4457232,31.0994544 15.4457232,78.6123096 C15.4457232,159.240185 129.402838,153.481051 129.402838,189.835584 C129.402838,199.914069 120.387244,207.832878 102.716678,207.832878 C79.6367563,207.832878 55.1143392,193.794989 40.6893879,181.196883 L7.512,229.069684 C32.0344172,253.546004 67.3755478,265.784163 100.913559,265.784163 Z M353.012,265.784163 C432.848898,265.784163 487.512,206.75304 487.512,131.164407 C487.512,57.3755031 432.848898,-0.215836572 353.012,-0.215836572 C273.175102,-0.215836572 218.512,57.3755031 218.512,131.164407 C218.512,206.75304 273.175102,265.784163 353.012,265.784163 Z M353.012,208.784163 C312.32029,208.784163 283.512,175.629032 283.512,131.662445 C283.512,89.4977672 312.32029,57.7841634 353.012,57.7841634 C393.70371,57.7841634 422.512,89.4977672 422.512,131.662445 C422.512,175.629032 393.70371,208.784163 353.012,208.784163 Z M648.692995,265.784163 C695.916223,265.784163 729.801593,245.98714 752.512,222.590659 L720.068561,176.517587 C702.404911,194.154935 677.171125,208.192824 651.576857,208.192824 C601.83025,208.192824 578.75936,168.958724 578.75936,130.804461 C578.75936,93.7300362 600.027837,57.3755031 651.576857,57.3755031 C674.647747,57.3755031 699.52105,69.2537169 716.103252,83.6515518 L745.302347,36.1386966 C720.068561,11.3024314 683.29933,-0.215836572 648.692995,-0.215836572 C569.026329,-0.215836572 513.512,57.3755031 513.512,132.244245 C513.512,208.55277 565.781985,265.784163 648.692995,265.784163 Z M847.512,261.784163 L847.512,4.78416343 L784.512,4.78416343 L784.512,261.784163 L847.512,261.784163 Z M938.258269,261.784163 L953.725433,207.86808 L1033.93887,207.86808 L1049.76573,261.784163 L1114.512,261.784163 L1027.10454,4.78416343 L960.919463,4.78416343 L873.512,261.784163 L938.258269,261.784163 Z M1019.512,156.784163 L968.512,156.784163 L983.341787,106.913934 C988.043915,90.7688963 993.831149,62.7841634 993.831149,62.7841634 L994.554553,62.7841634 C994.554553,62.7841634 1000.34179,90.7688963 1005.04391,106.913934 L1019.512,156.784163 Z M1308.512,261.784163 L1308.512,207.86808 L1203.46703,207.86808 L1203.46703,4.78416343 L1140.512,4.78416343 L1140.512,261.784163 L1308.512,261.784163 Z" id="SOCIAL" stroke="url(#linearGradient-1)" stroke-width="5"></path>
                <path d="M58.0867126,401.784163 L58.0867126,318.021926 L90.512,318.021926 L90.512,295.784163 L-0.488,295.784163 L-0.488,318.021926 L31.9372874,318.021926 L31.9372874,401.784163 L58.0867126,401.784163 Z M172.512,401.784163 L172.512,379.546401 L129.648364,379.546401 L129.648364,359.532415 L162.206805,359.532415 L162.206805,337.294653 L129.648364,337.294653 L129.648364,318.021926 L170.421091,318.021926 L170.421091,295.784163 L103.512,295.784163 L103.512,401.784163 L172.512,401.784163 Z M239.507475,403.784163 C259.068561,403.784163 273.10476,395.597425 282.512,385.922188 L269.073086,366.869414 C261.756344,374.163054 251.303855,379.968196 240.702045,379.968196 C220.09571,379.968196 210.539149,363.743568 210.539149,347.96549 C210.539149,332.63396 219.349104,317.600131 240.702045,317.600131 C250.258606,317.600131 260.561774,322.512174 267.430552,328.466166 L279.525575,308.817993 C269.073086,298.547357 253.842317,293.784163 239.507475,293.784163 C206.507475,293.784163 183.512,317.600131 183.512,348.560889 C183.512,380.117046 205.163584,403.784163 239.507475,403.784163 Z M321.618557,401.784163 L321.618557,360.273674 L360.405443,360.273674 L360.405443,401.784163 L386.512,401.784163 L386.512,295.784163 L360.405443,295.784163 L360.405443,338.184163 L321.618557,338.184163 L321.618557,295.784163 L295.512,295.784163 L295.512,401.784163 L321.618557,401.784163 Z M495.507475,403.784163 C515.068561,403.784163 529.10476,395.597425 538.512,385.922188 L525.073086,366.869414 C517.756344,374.163054 507.303855,379.968196 496.702045,379.968196 C476.09571,379.968196 466.539149,363.743568 466.539149,347.96549 C466.539149,332.63396 475.349104,317.600131 496.702045,317.600131 C506.258606,317.600131 516.561774,322.512174 523.430552,328.466166 L535.525575,308.817993 C525.073086,298.547357 509.842317,293.784163 495.507475,293.784163 C462.507475,293.784163 439.512,317.600131 439.512,348.560889 C439.512,380.117046 461.163584,403.784163 495.507475,403.784163 Z M577.618557,401.784163 L577.618557,360.273674 L616.405443,360.273674 L616.405443,401.784163 L642.512,401.784163 L642.512,295.784163 L616.405443,295.784163 L616.405443,338.184163 L577.618557,338.184163 L577.618557,295.784163 L551.512,295.784163 L551.512,401.784163 L577.618557,401.784163 Z M679.377672,401.784163 L685.795582,379.546401 L719.079164,379.546401 L725.646328,401.784163 L752.512,401.784163 L716.243343,295.784163 L688.780657,295.784163 L652.512,401.784163 L679.377672,401.784163 Z M713.512,358.784163 L692.512,358.784163 L698.618383,338.093324 C700.554553,331.39485 702.937532,319.784163 702.937532,319.784163 L703.235404,319.784163 C703.235404,319.784163 705.618383,331.39485 707.554553,338.093324 L713.512,358.784163 Z M832.512,401.784163 L832.512,379.546401 L789.368531,379.546401 L789.368531,295.784163 L763.512,295.784163 L763.512,401.784163 L832.512,401.784163 Z M914.512,401.784163 L914.512,379.546401 L871.368531,379.546401 L871.368531,295.784163 L845.512,295.784163 L845.512,401.784163 L914.512,401.784163 Z M996.512,401.784163 L996.512,379.546401 L953.648364,379.546401 L953.648364,359.532415 L986.206805,359.532415 L986.206805,337.294653 L953.648364,337.294653 L953.648364,318.021926 L994.421091,318.021926 L994.421091,295.784163 L927.512,295.784163 L927.512,401.784163 L996.512,401.784163 Z M1039.58816,401.784163 L1039.58816,352.416331 C1039.58816,345.745003 1038.39611,334.329618 1038.39611,334.329618 L1038.69412,334.329618 C1038.69412,334.329618 1043.46233,345.448499 1047.63452,352.416331 L1077.28683,401.784163 L1103.512,401.784163 L1103.512,295.784163 L1077.43584,295.784163 L1077.43584,345.300247 C1077.43584,351.971576 1078.62789,363.386961 1078.62789,363.386961 L1078.32988,363.386961 C1078.32988,363.386961 1073.56167,352.26808 1069.38948,345.300247 L1039.88617,295.784163 L1013.512,295.784163 L1013.512,401.784163 L1039.58816,401.784163 Z M1171.7015,403.784163 C1182.10967,403.784163 1193.26127,400.211768 1199.65486,394.555476 L1199.95223,394.555476 C1199.95223,394.555476 1199.81476,396.619776 1199.80419,398.763472 L1199.80355,401.997966 L1221.512,401.997966 L1221.512,341.862648 L1183.44786,341.862648 L1183.44786,364.041268 L1198.46535,364.041268 L1198.46535,372.228006 C1192.36914,376.9912 1184.63736,379.968196 1176.90559,379.968196 C1160.40121,379.968196 1146.42454,367.911362 1146.42454,347.66779 C1146.42454,331.889711 1155.49451,317.600131 1177.79771,317.600131 C1186.86769,317.600131 1197.57322,321.916775 1203.66943,327.424218 L1216.15923,307.924894 C1204.85894,297.951958 1189.69276,293.784163 1175.27002,293.784163 C1142.85602,293.784163 1119.512,317.600131 1119.512,348.560889 C1119.512,383.391741 1144.49159,403.784163 1171.7015,403.784163 Z M1309.512,401.784163 L1309.512,379.546401 L1266.64836,379.546401 L1266.64836,359.532415 L1299.20681,359.532415 L1299.20681,337.294653 L1266.64836,337.294653 L1266.64836,318.021926 L1307.42109,318.021926 L1307.42109,295.784163 L1240.512,295.784163 L1240.512,401.784163 L1309.512,401.784163 Z" id="TECHCHALLENGE" fill="url(#linearGradient-2)"></path>
                <path d="M1300.23879,263.033372 L1300.23879,237.448778 L1247.82459,237.448778 C1249.35122,221.756893 1298.37291,214.422643 1298.37291,176.386879 C1298.37291,150.461157 1276.83051,139.033372 1256.98435,139.033372 C1235.1027,139.033372 1221.36305,151.484541 1214.23879,165.300222 L1236.29007,180.139287 C1239.8522,173.316728 1246.46759,167.176426 1254.27035,167.176426 C1260.54648,167.176426 1267.33149,170.758269 1267.33149,179.286467 C1267.33149,196.854555 1214.91729,204.871061 1214.91729,249.899947 C1214.91729,253.993482 1215.42617,258.257581 1216.27429,263.033372 L1300.23879,263.033372 Z M1362.73879,265.033372 C1397.07522,265.033372 1408.23879,236.954887 1408.23879,202.279651 C1408.23879,167.604414 1397.07522,140.033372 1362.73879,140.033372 C1328.40236,140.033372 1317.23879,167.604414 1317.23879,202.279651 C1317.23879,236.954887 1328.40236,265.033372 1362.73879,265.033372 Z M1361.73879,237.533372 C1350.22587,237.533372 1346.80703,221.921946 1346.73981,202.372787 L1346.73879,201.779195 C1346.73879,182.122871 1350.10958,166.533372 1361.73879,166.533372 C1373.36801,166.533372 1376.73879,182.122871 1376.73879,201.779195 C1376.73879,221.604971 1373.36801,237.533372 1361.73879,237.533372 Z M1509.23879,263.033372 L1509.23879,237.448778 L1456.82459,237.448778 C1458.35122,221.756893 1507.37291,214.422643 1507.37291,176.386879 C1507.37291,150.461157 1485.83051,139.033372 1465.98435,139.033372 C1444.1027,139.033372 1430.36305,151.484541 1423.23879,165.300222 L1445.29007,180.139287 C1448.8522,173.316728 1455.46759,167.176426 1463.27035,167.176426 C1469.54648,167.176426 1476.33149,170.758269 1476.33149,179.286467 C1476.33149,196.854555 1423.91729,204.871061 1423.91729,249.899947 C1423.91729,253.993482 1424.42617,258.257581 1425.27429,263.033372 L1509.23879,263.033372 Z M1571.73879,265.033372 C1606.07522,265.033372 1617.23879,236.954887 1617.23879,202.279651 C1617.23879,167.604414 1606.07522,140.033372 1571.73879,140.033372 C1537.40236,140.033372 1526.23879,167.604414 1526.23879,202.279651 C1526.23879,236.954887 1537.40236,265.033372 1571.73879,265.033372 Z M1571.73879,237.533372 C1560.22587,237.533372 1556.80703,221.921946 1556.73981,202.372787 L1556.73879,201.779195 C1556.73879,182.122871 1560.10958,166.533372 1571.73879,166.533372 C1583.36801,166.533372 1586.73879,182.122871 1586.73879,201.779195 C1586.73879,221.604971 1583.36801,237.533372 1571.73879,237.533372 Z" id="2020" stroke="url(#linearGradient-3)" stroke-width="5" transform="translate(1415.500000, 202.045372) rotate(-270.000000) translate(-1415.500000, -202.045372) "></path>
            </g>
        </g>
    </g>
</svg>