<svg xmlns="http://www.w3.org/2000/svg" viewBox="0 0 284 40"><style>.st0{fill:#fff}</style><path class="st0" d="M7.9 29.6c.1 2.9 2 4.3 6 4.3 3.1 0 4.7-1.1 4.7-2.9 0-2.5-2.5-2.3-7.5-3.6-6.7-1.7-9.9-3.8-9.9-8.6C1.2 13 5.6 9.3 13 9.3c7.7 0 12.2 3.6 12.5 9.8h-7.4c-.1-2.4-1.9-3.8-5-3.8-2.9 0-4.3.9-4.3 2.6 0 2 2.4 2.2 7.8 3.5 6.6 1.6 9.9 3.4 9.9 8.6 0 6.5-4.6 10-13.4 10C5.1 40 .5 36.2.5 30v-.3h7.4zM39.9 39.4c-6.3 0-7.7-2.2-7.7-8.1V15.7h-3.8v-5.4h3.8V2.5h7.6v7.8h4.4v5.4h-4.4v15.9c0 1.5.5 1.8 2.5 1.8h1.9v5.8c-2 0-3.5.2-4.3.2zM56.2 40c-5.5 0-8.7-3.2-8.7-9.1 0-5.6 3-8.1 9.7-9.1 5.9-.9 8-.5 8-3.2 0-2.4-1.4-3.2-4.7-3.2-3.1 0-4.8 1.3-4.8 3.6v.4h-7.2v-.5c0-5.8 4.3-9.4 11.7-9.4 8.1 0 12.4 2.9 12.4 8.1v16.3c0 2.1.3 3.3 1.6 4V39h-8c-.5-1-.8-2.2-.9-3.6-1.7 3-4.9 4.6-9.1 4.6zm2.3-13.2c-2.4.7-3.6 1.6-3.6 3.8 0 2.1 1.5 3.5 3.8 3.5 4.2 0 6.7-2.5 6.7-6.5v-2.7c-3 1.3-5.5 1.5-6.9 1.9zM79.7 10.3h7.1v4.9c2-3.9 4.6-5.7 8.2-5.7.4 0 .8 0 1.1.1v7.8h-2.5c-4.2 0-6.3 2.2-6.3 6.5V39h-7.7V10.3zM109.1 39.4c-6.3 0-7.7-2.2-7.7-8.1V15.7h-3.8v-5.4h3.8V2.5h7.6v7.8h4.4v5.4H109v15.9c0 1.5.5 1.8 2.5 1.8h1.9v5.8c-2.1 0-3.5.2-4.3.2zM143.5 30.3c-1.6 6-6.5 9.7-13.3 9.7-8.1 0-13.5-5.8-13.5-15.5 0-9.4 5.1-15.2 13.4-15.2 8.7 0 13.8 5.5 13.8 15.4 0 .6 0 1.3-.1 2h-19.1c.2 4.5 2.2 6.8 5.9 6.8 2.6 0 4.3-1 5.2-3.2h7.7zm-7.6-8.6c-.1-3.9-2.1-5.9-5.7-5.9-3.3 0-5.3 2-5.6 5.9h11.3zM174.1 28.2c-.6 7.3-5.7 11.8-13 11.8-8.3 0-13.3-5.7-13.3-15.3 0-9.6 5.2-15.3 13.6-15.3 7.4 0 12.1 4.2 12.7 11.2h-7.6c-.4-3-2.2-4.7-5-4.7-3.8 0-5.7 3-5.7 9 0 5.6 2 8.6 5.7 8.6 2.9 0 4.6-1.7 5.1-5.1h7.5zM179.4.2h7.6v13.3c2.1-2.6 5-3.9 8.5-3.9 3.4 0 6.2 1.2 7.9 3.3 1.5 1.9 1.6 4.2 1.6 7V39h-7.6V24c0-5.3-.1-8-4.5-8-3.6 0-5.9 2.3-5.9 6v17h-7.6V.2zM212.4 31h7.9v8h-7.9v-8zM224.4 10.3h8.5l5.9 20.5 5.9-20.5h8.1L242.6 39h-7.8l-10.4-28.7zM280.5 14.6l-5 7.3c.2.7.4 1.4.4 2.2a6.7 6.7 0 11-6.7-6.7c.8 0 1.6.2 2.4.4l7.2-5c-2.6-2.2-5.9-3.6-9.6-3.6-8.2 0-14.8 6.6-14.8 14.8s6.6 14.8 14.8 14.8S284 32.3 284 24.1c0-3.6-1.3-6.9-3.5-9.5z"/></svg>