<svg width="90" height="34" viewBox="0 0 90 34" fill="none" xmlns="http://www.w3.org/2000/svg">
    <path d="M4.94061 9.52215C1.79659 9.52215 0 7.61772 0 4.76108C0 1.90443 1.79659 0 4.94061 0H24.7031C27.8471 0 29.6437 1.90443 29.6437 4.76108C29.6437 7.61772 27.8471 9.52215 24.7031 9.52215H19.7625V29.0426C19.7625 31.8992 17.9659 33.8036 14.8218 33.8036C11.6778 33.8036 9.88123 31.8992 9.88123 29.0426V9.52215H4.94061Z" fill="#00CAEB"/>
    <path d="M44.7298 16.0476L42.3519 27.9783C41.5329 31.199 39.3136 33.4676 35.0071 33.4676C30.7005 33.4676 28.4812 31.171 27.6622 27.9783L22.6687 8.70997C22.6687 8.70997 21.7969 5.96535 21.7969 4.59304C21.7969 2.07247 23.752 0 26.5525 0C29.5909 0 31.3082 1.82041 31.9687 4.59304L35.4298 19.7165H35.8525L38.6531 5.48924C39.3664 2.07247 41.2687 0 44.9411 0C48.6136 0 50.5158 2.07247 51.2028 5.48924L54.0033 19.7165H54.4261L57.8871 4.59304C58.5476 1.84842 60.265 0 63.3033 0C66.1039 0 68.059 2.07247 68.059 4.59304C68.059 5.96535 67.1871 8.70997 67.1871 8.70997L62.2201 27.9783C61.4011 31.199 59.1817 33.4676 54.8752 33.4676C50.5687 33.4676 48.3494 31.171 47.5303 27.9783L45.1525 16.0476H44.7298Z" fill="#F7362F"/>
    <path d="M89.9881 19.0443C89.9881 27.1381 84.1492 33.3275 74.5057 33.3275H66.6589C63.5148 33.3275 61.7183 31.4231 61.7183 28.5664V4.76107C61.7183 1.90443 63.5148 0 66.6589 0H74.5057C84.1492 0 89.9881 6.1894 89.9881 14.2832V19.0443ZM71.5731 8.56993V24.7576H74.4793C77.6233 24.7576 79.8691 22.3771 79.8691 19.0443V14.2832C79.8691 10.9505 77.6233 8.56993 74.4793 8.56993H71.5731Z" fill="#FFC717"/>
    <path d="M68.0852 4.59245C68.0852 2.57599 66.8434 0.839598 64.8883 0.251465C62.8539 0.839598 61.6914 2.49197 61.6914 4.78849V28.5939C61.6914 28.8739 61.7178 29.154 61.7442 29.4061C61.9292 28.958 62.0877 28.5099 62.2198 28.0057L67.1869 8.73738C67.2133 8.70938 68.0852 5.96476 68.0852 4.59245Z" fill="#FF8009"/>
    <path d="M29.6173 4.75946C29.6173 2.21088 28.1906 0.44648 25.6807 0.0823975C23.3293 0.44648 21.7969 2.35091 21.7969 4.59142C21.7969 5.96373 22.6687 8.70835 22.6687 8.70835L22.8801 9.52054H24.7031C27.8207 9.52054 29.6173 7.61611 29.6173 4.75946Z" fill="#2F80ED"/>
</svg>
