<?xml version="1.0" encoding="utf-8"?>
<!-- Generator: Adobe Illustrator 23.0.1, SVG Export Plug-In . SVG Version: 6.00 Build 0)  -->
<svg version="1.1" id="Слой_1" xmlns="http://www.w3.org/2000/svg" xmlns:xlink="http://www.w3.org/1999/xlink" x="0px" y="0px"
	 viewBox="0 0 286.6 73.7" style="enable-background:new 0 0 286.6 73.7;" xml:space="preserve">
<style type="text/css">
	.st0{fill:#0E2248;}
	.st1{fill:#6788f3;}
	.st2{fill:#6788f3;}
</style>
<g>
	<path class="st0" d="M19.7,61.1c-2.1,0-4-1.3-4.7-3.3L0.3,19.5c-1-2.6,0.3-5.5,2.9-6.5c2.6-1,5.5,0.3,6.5,2.9l9.9,25.9l9.9-25.9
		c0.7-2,2.6-3.3,4.7-3.3l0,0c2.1,0,4,1.3,4.7,3.3l9.9,25.9l9.9-25.9c1-2.6,3.9-3.9,6.5-2.9c2.6,1,3.9,3.9,2.9,6.5L53.6,57.8
		c-0.7,2-2.6,3.3-4.7,3.3l0,0c-2.1,0-4-1.3-4.7-3.3l-9.9-25.9l-9.9,25.9C23.6,59.8,21.8,61.1,19.7,61.1z"/>
</g>
<g>
	<path class="st0" d="M172.4,22.7h-29.2c-2.8,0-5.1-2.3-5.1-5.1s2.3-5.1,5.1-5.1h29.2c2.8,0,5.1,2.3,5.1,5.1S175.2,22.7,172.4,22.7z
		"/>
</g>
<g>
	<path class="st0" d="M165.4,41.9h-22.1c-2.8,0-5.1-2.3-5.1-5.1s2.3-5.1,5.1-5.1h22.1c2.8,0,5.1,2.3,5.1,5.1S168.2,41.9,165.4,41.9z
		"/>
</g>
<g>
	<path class="st0" d="M172.5,61.1h-29.2c-2.8,0-5.1-2.3-5.1-5.1s2.3-5.1,5.1-5.1h29.2c2.8,0,5.1,2.3,5.1,5.1S175.3,61.1,172.5,61.1z
		"/>
</g>
<g>
	<path class="st0" d="M221.9,22.7h-29.2c-2.8,0-5.1-2.3-5.1-5.1s2.3-5.1,5.1-5.1h29.2c2.8,0,5.1,2.3,5.1,5.1S224.7,22.7,221.9,22.7z
		"/>
</g>
<g>
	<path class="st0" d="M214.8,41.9h-22.1c-2.8,0-5.1-2.3-5.1-5.1s2.3-5.1,5.1-5.1h22.1c2.8,0,5.1,2.3,5.1,5.1S217.6,41.9,214.8,41.9z
		"/>
</g>
<g>
	<path class="st0" d="M221.9,61.1h-29.2c-2.8,0-5.1-2.3-5.1-5.1s2.3-5.1,5.1-5.1h29.2c2.8,0,5.1,2.3,5.1,5.1S224.7,61.1,221.9,61.1z
		"/>
</g>
<g>
	<path class="st0" d="M252.3,61.1c-2.8,0-5.1-2.3-5.1-5.1V17.7c0-2.8,2.3-5.1,5.1-5.1c2.8,0,5.1,2.3,5.1,5.1V56
		C257.4,58.8,255.1,61.1,252.3,61.1z"/>
</g>
<g>
	<path class="st0" d="M252.3,51.5c-1.3,0-2.6-0.5-3.6-1.5c-2-2-1.9-5.2,0.1-7.2L278,14.1c2-2,5.2-1.9,7.2,0.1c2,2,1.9,5.2-0.1,7.2
		l-29.2,28.8C254.9,51,253.6,51.5,252.3,51.5z"/>
</g>
<g>
	<path class="st0" d="M281.5,61.1c-1.3,0-2.6-0.5-3.6-1.5l-19.5-19.2c-2-2-2-5.2-0.1-7.2c2-2,5.2-2,7.2-0.1l19.5,19.2
		c2,2,2,5.2,0.1,7.2C284.1,60.6,282.8,61.1,281.5,61.1z"/>
</g>
<g>
	<path class="st1" d="M222.4,73.7H93.4c-9.5,0-17.2-7.7-17.2-17.2V17.2C76.1,7.7,83.9,0,93.4,0h129.1c9.5,0,17.2,7.7,17.2,17.2v39.3
		C239.7,66,231.9,73.7,222.4,73.7z M93.4,5c-6.7,0-12.2,5.5-12.2,12.2v39.3c0,6.7,5.5,12.2,12.2,12.2h129.1
		c6.7,0,12.2-5.5,12.2-12.2V17.2c0-6.7-5.5-12.2-12.2-12.2H93.4z"/>
</g>
<g>
	<path class="st2" d="M123,51H93.8c-0.3,0-0.6,0-1,0.1c-2.3,0.4-4.1,2.5-4.1,5c0,2.5,1.8,4.5,4.1,5c0.3,0.1,0.6,0.1,1,0.1H123
		c2.8,0,5.1-2.3,5.1-5.1C128.1,53.2,125.8,51,123,51z"/>
	<path class="st2" d="M92.9,22.6c0.3,0.1,0.6,0.1,1,0.1H123c2.8,0,5.1-2.3,5.1-5.1c0-2.8-2.3-5.1-5.1-5.1H93.8c-0.3,0-0.6,0-1,0.1
		c-2.3,0.4-4.1,2.5-4.1,5C88.8,20.1,90.5,22.2,92.9,22.6z"/>
	<path class="st2" d="M92.9,41.8c0.3,0.1,0.6,0.1,1,0.1h22.1c2.8,0,5.1-2.3,5.1-5.1c0-2.8-2.3-5.1-5.1-5.1H93.8c-0.3,0-0.6,0-1,0.1
		c-2.3,0.4-4.1,2.5-4.1,5C88.8,39.3,90.5,41.4,92.9,41.8z"/>
</g>
</svg>
